<svg xmlns="http://www.w3.org/2000/svg" xmlns:xlink="http://www.w3.org/1999/xlink" width="18" height="18" viewBox="0 0 18 18">
    <defs>
        <path id="a" d="M44.09 0h-8.18C33.21 0 31 2.21 31 4.91v8.18c0 2.7 2.21 4.91 4.91 4.91h8.18c2.7 0 4.91-2.21 4.91-4.91V4.91C49 2.21 46.79 0 44.09 0zm3.274 13.09c0 1.8-1.473 3.274-3.273 3.274h-8.182a3.282 3.282 0 0 1-3.273-3.273V4.909c0-1.8 1.473-3.273 3.273-3.273h8.182c1.8 0 3.273 1.473 3.273 3.273v8.182zm-6.71-8.18a3.099 3.099 0 0 0-1.227 0c-2.209.326-3.763 2.454-3.436 4.663.327 2.045 2.045 3.518 4.009 3.518.164 0 .41 0 .573-.082a4.105 4.105 0 0 0 2.7-1.636c.654-.9.9-1.964.736-3.028-.164-1.8-1.554-3.19-3.354-3.436zm1.391 5.48c-.409.492-.981.9-1.636.983-1.309.163-2.618-.737-2.782-2.046-.245-1.309.737-2.618 2.046-2.782h.654a2.43 2.43 0 0 1 2.046 2.046c.163.654 0 1.309-.328 1.8zm3.191-6.217c0 .082.082.163.082.327 0 .245-.082.41-.245.573a.884.884 0 0 1-.573.245.884.884 0 0 1-.573-.245.884.884 0 0 1-.245-.573c0-.082 0-.245.082-.327 0-.082.081-.164.163-.246a.79.79 0 0 1 1.146 0c.082.082.163.164.163.246z"/>
    </defs>
    <use fill="#000" fill-rule="nonzero" opacity=".3" transform="translate(-31)" xlink:href="#a"/>
</svg>
