<svg xmlns="http://www.w3.org/2000/svg" xmlns:xlink="http://www.w3.org/1999/xlink" width="394" height="364" viewBox="0 0 394 364">
    <defs>
        <path id="a" d="M0 .126h393.783V326.84H0z"/>
        <path id="c" d="M0 362.83h393.783V0H0z"/>
    </defs>
    <g fill="none" fill-rule="evenodd" transform="translate(0 1)">
        <g transform="translate(0 18.627)">
            <mask id="b" fill="#fff">
                <use xlink:href="#a"/>
            </mask>
            <path fill="#F9F9F9" d="M148.057 284.65c18.225 12.708 29.281 36.844 51.013 41.442 17.966 3.801 35.205-7.631 50.447-17.881 15.241-10.25 34.009-20.233 51.106-13.528 7.734 3.033 13.95 9.185 21.718 12.13 15.495 5.877 34.13-3.477 41.418-18.37 7.288-14.894 4.49-33.365-4.214-47.476-6.187-10.03-15.589-20.245-13.027-31.75 2.896-13.01 18.573-17.565 29.354-25.392 10.756-7.808 17.574-20.792 17.899-34.086.324-13.295-5.851-26.596-16.213-34.92-6.497-5.22-14.375-8.478-20.97-13.574-6.595-5.096-12.058-13.088-10.55-21.289.799-4.338 3.423-8.083 5.981-11.675l13.166-18.489c4.616-6.483 9.444-13.665 8.95-21.61-.714-11.493-12.224-19.292-23.293-22.435-20.84-5.916-44.36-1.43-61.565 11.744-9.405 7.202-18.137 17.295-29.967 17.833-13.522.615-23.67-11.382-34.285-19.79-28.638-22.687-74.19-19.991-99.959 5.915-12.934 13.003-21.886 31.28-38.917 38.073-19.026 7.59-41.618-2.072-60.704 5.367C11.037 70.505 1.48 85.54.175 100.962c-1.304 15.42 4.794 30.856 14.432 42.958 6.007 7.543 13.342 13.965 19.165 21.65 5.824 7.686 10.162 17.225 8.773 26.77-2.251 15.488-17.917 24.906-26.274 38.134-13.211 20.912-4.433 52.05 17.223 63.984 20.478 11.287 42.874 3.784 59.739-9.93 16.053-13.055 37.738-11.792 54.824.122" mask="url(#b)"/>
        </g>
        <path stroke="#B3B3B3" stroke-width="2" d="M99.303 45.752a7.125 7.125 0 0 0 7.122-7.128 7.125 7.125 0 0 0-7.122-7.128 7.125 7.125 0 0 0-7.122 7.128 7.125 7.125 0 0 0 7.122 7.128zM343.369 7.546a3.562 3.562 0 0 0 3.56-3.564 3.563 3.563 0 0 0-3.56-3.564 3.562 3.562 0 0 0-3.561 3.564 3.562 3.562 0 0 0 3.56 3.564z"/>
        <path fill="#CCC" d="M253.46 311.771c-3.84-.904-4.571-1.637-5.475-5.48-.903 3.843-1.635 4.576-5.475 5.48 3.84.904 4.572 1.637 5.475 5.48.904-3.843 1.636-4.576 5.476-5.48M195.866 51.163c-3.84-.904-4.571-1.637-5.475-5.48-.903 3.843-1.635 4.576-5.475 5.48 3.84.904 4.572 1.637 5.475 5.48.904-3.843 1.636-4.576 5.475-5.48M48.637 289.039c-3.84-.904-4.573-1.637-5.476-5.48-.903 3.843-1.636 4.576-5.476 5.48 3.84.904 4.573 1.637 5.476 5.48.903-3.843 1.636-4.576 5.476-5.48M383.25 69.836c-3.84-.904-4.572-1.637-5.475-5.48-.903 3.843-1.636 4.576-5.476 5.48 3.84.904 4.573 1.637 5.476 5.48.903-3.843 1.636-4.576 5.476-5.48"/>
        <path fill="#E0E0E0" d="M108.174 53.398v66.338a4.294 4.294 0 0 0 4.292 4.295h106.876a4.294 4.294 0 0 0 4.292-4.295V53.398a4.294 4.294 0 0 0-4.292-4.295H112.466a4.294 4.294 0 0 0-4.292 4.295"/>
        <path fill="#FAC863" d="M119.469 63.517c.04.082 1.33-.667 3.862-1.47a24.81 24.81 0 0 1 11.074-.822c2.325.373 4.844 1.077 7.304 2.35 2.477 1.242 4.838 3.084 7.182 5.17 2.355 2.08 4.693 4.44 7.39 6.624 2.697 2.148 5.79 4.18 9.431 5.109 1.807.465 3.698.586 5.506.332 1.813-.247 3.524-.84 5.103-1.577 3.163-1.492 5.868-3.452 8.547-5.087 2.66-1.667 5.335-2.99 8.04-3.607a23.863 23.863 0 0 1 7.646-.587 24.616 24.616 0 0 1 10.556 3.44c2.265 1.385 3.334 2.427 3.395 2.354.018-.02-.246-.28-.768-.755-.514-.483-1.333-1.135-2.457-1.87a24.064 24.064 0 0 0-18.532-3.244c-2.792.605-5.584 1.96-8.274 3.622-2.715 1.636-5.42 3.57-8.49 5.003-3.04 1.465-6.613 2.116-10.072 1.18-3.458-.88-6.476-2.84-9.129-4.94-2.653-2.135-5.002-4.481-7.391-6.566-2.381-2.088-4.809-3.955-7.376-5.209-2.547-1.283-5.142-1.973-7.528-2.316-4.81-.652-8.742.21-11.257 1.093-1.27.44-2.215.89-2.836 1.222-.622.337-.939.526-.926.55"/>
        <mask id="d" fill="#fff">
            <use xlink:href="#c"/>
        </mask>
        <path fill="#FBD689" d="M185.972 109.575h10.21V81.94h-10.21zM142.65 109.575h10.21V81.94h-10.21zM128.208 109.575h10.21V65.711h-10.21zM199.185 110.176h10.209v-9.3h-10.21zM171.531 109.575h10.21V94.419h-10.21zM157.09 109.575h10.21V90.94h-10.21z" mask="url(#d)"/>
        <path fill="#8C6239" d="M133.585 194.539c-5.947-.482-14.588-1.077-20.541-.658 2.633-2.9 4.74-5.14 5.267-8.971.139-1.006.204-2.008.222-3.008a18.943 18.943 0 0 0 7.477 2.832c1.41.212 2.846.263 4.266.145.72 2.834 1.883 6.276 3.309 9.66" mask="url(#d)"/>
        <path fill="#754C24" d="M130.277 184.879c-1.42.118-2.857.067-4.267-.145a18.948 18.948 0 0 1-7.478-2.832c.05-2.902-.31-5.78-.483-8.67.238-.354.521-.682.9-.868.538-.265 1.17-.2 1.764-.129.099.013.2.024.298.036 2.635 3.574 5.847 5.596 8.491 7.18-.118 1.126.174 3.065.775 5.428" mask="url(#d)"/>
        <path fill="#603813" d="M142.278 160.845s1.237 1.15 2.32 1.33a1.874 1.874 0 0 1 1.495 1.9c-.008 1.045-1.669 1.985-2.321 1.69" mask="url(#d)"/>
        <path fill="#8C6239" d="M118.049 173.232c-.125-2.042-.156-4.09.112-6.16.014.038.028.077.044.115a22.665 22.665 0 0 0 2.806 5.084c-.099-.012-.2-.023-.298-.036-.594-.07-1.226-.136-1.764.129-.379.186-.661.514-.9.868" mask="url(#d)"/>
        <path fill="#8C6239" d="M117.568 172.674c7.721 7.094 15.776 10.328 21.911 7.094 4.408-2.324 6.63-11.229 2.766-21.272-3.488-9.067-13.903-11.328-20.638-7.796-6.735 3.53-11.19 15.405-4.04 21.974" mask="url(#d)"/>
        <path fill="#002784" d="M108.463 166.831c5.784 0 10.473 4.693 10.473 10.482s-4.689 10.482-10.473 10.482c-5.784 0-10.473-4.693-10.473-10.482s4.69-10.482 10.473-10.482M135.525 160.451a.369.369 0 0 0 .335-.213 8 8 0 0 1 2.686-3.19.369.369 0 0 0-.42-.606 8.748 8.748 0 0 0-2.934 3.484.37.37 0 0 0 .333.525M139.341 159.653c.95-.114 1.631 1.005.824 1.873-1.008.623-1.973-.264-1.675-1.174.123-.374.461-.652.851-.699M141.397 170.991c1.173 0 2.035-.307 2.965-.998a.369.369 0 0 0-.44-.593c-1.105.822-2.028 1.004-3.791.75a.369.369 0 1 0-.105.73c.506.073.958.111 1.37.111" mask="url(#d)"/>
        <path fill="#002784" d="M132.18 159.01c-.973 7.255-6.826 18.816-13.731 19.741-.052-4.64-7.585-4.063-10.387-11.053-.656-1.634-1.372-5.271-.775-8.053.534-2.484 2.677-8.988 9.565-12.136 8.184-3.24 20.034 2.69 20.034 2.69 1.47 2.87-2.37 5.534-4.706 8.812" mask="url(#d)"/>
        <path fill="#8C6239" d="M128.18 167.116a2.912 2.912 0 1 1-.001 5.824 2.912 2.912 0 0 1 .002-5.824" mask="url(#d)"/>
        <path stroke="#8C6239" d="M128.18 167.116a2.912 2.912 0 1 1-.001 5.824 2.912 2.912 0 0 1 .002-5.824z" mask="url(#d)"/>
        <path stroke="#FFCCA0" stroke-linecap="round" stroke-linejoin="round" d="M125.47 173.67l2.583-2.585 2.635 2.636" mask="url(#d)"/>
        <path stroke="#FFCCA0" stroke-linecap="round" stroke-linejoin="round" d="M125.47 176.24l2.583-2.585 2.635 2.636" mask="url(#d)"/>
        <path fill="#FFCCA0" d="M127.8 173.721h.593v-2.57h-.592z" mask="url(#d)"/>
        <path fill="#8C6239" d="M149.311 209.824l6.981 8.601 18.223-14.262s5.497 4.173 5.717 7.194c-6.869 11.093-17.13 26.505-26.545 25.327-8.06-1.009-22.07-20.94-22.07-20.94" mask="url(#d)"/>
        <path fill="#8C6239" d="M178.406 212.415c2.704-.308 8.854-5.402 12.624-8.963 2.472-2.34 3.973-7.31-.036-12.34-3.853-4.85-9.99 2.515-12.982 6.29-2.471 3.11-5.761 9.573-5.761 9.573M204.738 266.52c5.476-3.29 14.662.938 14.656 5.644-.02 14.081-12.859 80.445-13.53 84.64-.67 4.195-7.851 5.303-8.27.014-.665-8.417-1.9-37.554-.664-51.04.51-5.567 1.06-10.868 1.602-15.598-6.738 12.177-17.158 29.612-31.26 52.304l-7.655-3.5c6.012-19.824 10.94-33.819 14.788-41.985 6.588-13.983 12.765-25.957 15.365-30.175 4.09-6.635 11.207-4.32 14.968-.303" mask="url(#d)"/>
        <path fill="#22449B" d="M160.164 327.975l26.276-62.299c6.295-10.134 23.943 2.063 21.797 7.94-4.873 13.345-29.66 56.547-31.111 60.523l-16.962-6.164z" mask="url(#d)"/>
        <path stroke="#FFF" d="M194.331 280.654l-21.937 43.54" mask="url(#d)"/>
        <path fill="#3E5FAA" d="M221.235 276.95c0 17.676-8.387 58.905-8.392 62.797l-18.045.014c2.64-36.788 7.14-51.66 2.81-55.777-3.502-3.33-47.377 2.608-61.052 4.604-19.472 2.842-38.28-5.264-25.154-41.043l35.79 5.167c8.038.86 47.066 6.164 62.636 9.074 7.527.857 11.407 10.296 11.407 15.165" mask="url(#d)"/>
        <path fill="#E6E6E6" d="M116.358 189.512l13.033 2.804a10.742 10.742 0 0 1 6.746 3.541l14.722 10.966a2.432 2.432 0 0 1 .198 3.707l-11.308 10.488-2.362 30.27-26.224-1.299s-4.085-30.636-4.138-38.847c-.044-10.19 9.333-21.63 9.333-21.63" mask="url(#d)"/>
        <path stroke="#FFF" d="M123.314 246.169s-5.143 25.39 6.11 26.346c11.921 1.013 77.732-12.61 80.1 5.961 1.165 9.141-5.13 52.843-5.13 52.843" mask="url(#d)"/>
        <path fill="#B3B3B3" d="M206.412 352.015s-8.855-.03-9.56-.164c-.705-.134-5.279 8.246-2.483 10.124 1.793 1.203 29.603 1.447 28.982-1.347-1.862-8.395-16.94-8.613-16.94-8.613M166.86 339.29s-8.556-2.281-9.204-2.59c-.648-.31-7.2 6.631-4.974 9.16 1.429 1.619 28.263 8.93 28.373 6.071.331-8.593-14.195-12.64-14.195-12.64" mask="url(#d)"/>
        <path fill="#999" d="M164.134 254.88h45.533v-3.593h-45.533z" mask="url(#d)"/>
        <path fill="#999" d="M210.632 253.598l12.39-43.852-3.455-.977-12.39 43.852z" mask="url(#d)"/>
        <path fill="gray" d="M131.034 294.055l15.085 67.94-24.684-68.07zM92.177 292.126l-12.967 69.58 23.58-69.188z" mask="url(#d)"/>
        <path fill="#B3B3B3" d="M145.185 288.744H80.764c-.858 0-1.554.696-1.554 1.555v3.242c0 .86.696 1.556 1.554 1.556h64.42c.86 0 1.555-.697 1.555-1.556V290.3c0-.859-.696-1.555-1.554-1.555" mask="url(#d)"/>
        <path fill="#F0F0F0" d="M244.863 121.753h77.268c.633 0 1.146-.513 1.146-1.147V43.274c0-.634-.514-1.148-1.147-1.148h-77.267c-.633 0-1.146.514-1.146 1.148v77.332c0 .634.513 1.147 1.146 1.147" mask="url(#d)"/>
        <path fill="#FBD689" d="M268.462 65.247l15.997 14.909.334.315 15.374-17.338c-9.409-7.968-23.436-7.032-31.705 2.114" mask="url(#d)"/>
        <path fill="#FCE3B0" d="M258.716 80.93l21.763.806.471-.535-.332-.314-15.998-14.885a22.784 22.784 0 0 0-5.904 14.928" mask="url(#d)"/>
        <path fill="#FAC863" d="M262.551 83.284a22.83 22.83 0 0 0 7.282 16.747l14.463-16.363-21.763-.8c.018.158.018.284.018.416" mask="url(#d)"/>
        <path fill="#F7BB3B" d="M269.833 100.03c9.145 8.514 23.423 8.107 32.07-.912l-16.5-15.387-1.088-.038-14.482 16.338z" mask="url(#d)"/>
        <path fill="#FDF1D8" d="M284.793 83.158l.628.573 16.5 15.387c8.736-9.12 8.43-23.602-.684-32.345a22.885 22.885 0 0 0-1.058-.953l-15.386 17.338z" mask="url(#d)"/>
        <path fill="#CCC" d="M188.842 183.751h99.863c1.072 0 1.94-.87 1.94-1.942v-45.147H186.902v45.147c0 1.072.869 1.942 1.94 1.942" mask="url(#d)"/>
        <path fill="#FCE3B0" d="M186.9 145.41h103.746v-8.747H186.901z" mask="url(#d)"/>
        <path fill="#FAFAFA" d="M283.497 141.05c0 .38.366.687.818.687.452 0 .819-.307.819-.686 0-.379-.367-.686-.819-.686-.452 0-.818.307-.818.686M278.587 141.05c0 .38.366.687.818.687.452 0 .818-.307.818-.686 0-.379-.366-.686-.818-.686-.452 0-.818.307-.818.686M273.677 141.05c0 .38.366.687.818.687.452 0 .819-.307.819-.686 0-.379-.367-.686-.819-.686-.452 0-.818.307-.818.686" mask="url(#d)"/>
        <path fill="#FCE3B0" d="M276.55 152.905l-2.552 5.177-5.708.83 4.13 4.03-.975 5.69 5.106-2.687 5.105 2.686-.975-5.69 4.13-4.029-5.708-.83zM257.775 152.905l-2.553 5.177-5.709.83 4.131 4.03-.975 5.69 5.106-2.687 5.105 2.686-.975-5.69 4.13-4.029-5.708-.83zM238.998 152.905l-2.552 5.177-5.709.83 4.131 4.03-.975 5.69 5.105-2.687 5.106 2.686-.975-5.69 4.13-4.029-5.708-.83z" mask="url(#d)"/>
        <path fill="#ECECEC" d="M220.222 152.905l-2.553 5.177-5.708.83 4.131 4.03-.975 5.69 5.105-2.687 5.106 2.686-.975-5.69 4.13-4.029-5.708-.83zM201.446 152.905l-2.553 5.177-5.708.83 4.13 4.03-.974 5.69 5.105-2.687 5.106 2.686-.976-5.69 4.131-4.029-5.708-.83z" mask="url(#d)"/>
    </g>
</svg>
