<svg xmlns="http://www.w3.org/2000/svg" width="175" height="36" viewBox="0 0 175 36">
    <path fill="#FF7F11" fill-rule="evenodd" d="M89.753 11.866c6.394 0 10.386 3.953 9.65 11.82H84.481c.31 2.364 2.364 4.069 5.697 4.069 1.744 0 4.03-.659 5.116-1.783l3.022 2.984c-2.015 2.093-5.31 3.1-8.216 3.1-6.588 0-10.502-4.069-10.502-10.192 0-5.813 3.953-9.998 10.154-9.998zm-48.7.193c6.085 0 10 4.496 10 9.96 0 5.503-3.76 9.96-9.96 9.96-6.201 0-9.922-4.457-9.922-9.96 0-5.464 3.798-9.96 9.882-9.96zm34.432-7.595v27.089h-4.418l-.31-2.636c-1.472 2.287-3.837 3.062-6.161 3.062-5.62 0-9.844-3.72-9.844-9.999 0-6.588 4.147-9.998 9.727-9.998 2.015 0 5.154 1.085 6.278 3.061V4.463h4.728zm83.51 0v10.58c1.123-1.977 4.262-3.062 6.277-3.062 5.582 0 9.728 3.41 9.728 9.998 0 6.278-4.224 9.999-9.843 9.999-2.326 0-4.69-.775-6.163-3.062l-.31 2.636h-4.417V4.463h4.727zm-23.027 7.983v9.999c0 2.906 1.59 5.115 4.612 5.115 2.907 0 4.884-2.441 4.884-5.348v-9.766h4.689v19.145h-4.225l-.31-2.597c-1.976 1.938-3.798 2.867-6.471 2.867-4.573 0-7.906-3.448-7.906-9.378V12.447h4.727zm-27.25-7.984v11.433h13.332V4.463h5.077v27.129h-5.077V20.624h-13.332v10.968h-5.115V4.463h5.115zM41.092 16.361c-3.41 0-5.193 2.79-5.193 5.658 0 2.907 1.744 5.62 5.193 5.62 3.45 0 5.193-2.713 5.193-5.62 0-2.868-2.015-5.658-5.193-5.658zm23.814.039c-3.023 0-5.426 2.132-5.426 5.58 0 3.333 2.403 5.62 5.426 5.62 2.984 0 5.541-2.17 5.541-5.62 0-3.333-2.557-5.58-5.541-5.58zm99.94 0c-2.984 0-5.541 2.247-5.541 5.58 0 3.45 2.557 5.62 5.541 5.62 3.024 0 5.426-2.287 5.426-5.62 0-3.448-2.402-5.58-5.426-5.58zm-74.939-.349c-2.557 0-4.65 1.24-5.347 3.72h10.308c-.31-2.48-2.248-3.72-4.96-3.72zM5.583 2.671L5.57 13.327v.05l-.008 7.88c1.428 2.89 4.16 4.823 7.874 4.823 3.676 0 6.406-1.894 7.856-4.734l-.02-18.652c2.384 1.32 4.283 3.24 5.583 5.553v15.979c-1.07 1.912-2.551 3.547-4.393 4.788l2.552 1.328-2.57 4.935-7.24-3.77c-.573.054-1.157.09-1.761.09-6.34 0-11.006-3.01-13.444-7.509V8.33C1.282 5.966 3.178 4.008 5.583 2.67zM13.383 0c1.845 0 3.545.286 5.107.786v6.3c-1.397-.987-3.112-1.57-5.088-1.57-1.967 0-3.662.577-5.038 1.558V.765C9.896.28 11.567 0 13.384 0z"/>
</svg>
