<svg xmlns="http://www.w3.org/2000/svg" xmlns:xlink="http://www.w3.org/1999/xlink" width="20" height="16" viewBox="0 0 20 16">
    <defs>
        <path id="prefix__a" d="M79.831 2.116c1.747-1.528 4.324-1.448 5.987 0 .666-.24 1.331-.563 1.913-.965.25-.16.665-.16.915 0 .25.161.416.483.332.805-.25 1.126-.831 2.172-1.663 3.057v.402c0 4.425-1.995 8.126-5.571 10.056C79.914 16.517 77.919 17 75.84 17c-2.079 0-4.324-.563-6.403-1.69-.333-.16-.499-.563-.416-.884.083-.322.5-.564.832-.564 1.413 0 2.827-.241 4.074-.804-3.076-1.85-3.908-4.425-3.991-6.436-.083-2.333.748-4.264.831-4.345.084-.241.333-.482.666-.482.332 0 .582.08.748.321 1.414 1.931 3.576 3.138 5.987 3.299 0-1.287.582-2.494 1.663-3.299z"/>
    </defs>
    <g fill="none" fill-rule="evenodd" transform="translate(-69 -1)">
        <use fill="#000" fill-rule="nonzero" opacity=".3" xlink:href="#prefix__a"/>
    </g>
</svg>
