<?xml version="1.0" encoding="UTF-8"?>
<svg width="394px" height="347px" viewBox="0 0 394 347" version="1.1" xmlns="http://www.w3.org/2000/svg" xmlns:xlink="http://www.w3.org/1999/xlink">
    <!-- Generator: Sketch 58 (84663) - https://sketch.com -->
    <title>increase-reach-ecommerce</title>
    <desc>Created with Sketch.</desc>
    <defs>
        <polygon id="path-1" points="0 345.592572 393.782966 345.592572 393.782966 0 0 0"></polygon>
    </defs>
    <g id="UI-4" stroke="none" stroke-width="1" fill="none" fill-rule="evenodd">
        <g id="[Desktop]-Homepage-Copy" transform="translate(-925.000000, -1708.000000)">
            <g id="Group-10" transform="translate(208.000000, 1709.000000)">
                <g id="increase-reach-ecommerce" transform="translate(717.000000, 0.000000)">
                    <path d="M245.725696,303.388345 C227.501109,316.10092 216.444484,340.24612 194.712713,344.845246 C176.746897,348.647903 159.507728,337.211099 144.266105,326.957297 C129.024482,316.703913 110.256893,306.717968 93.1596305,313.42527 C85.4252936,316.459038 79.2101941,322.613074 71.44205,325.560343 C55.9470818,331.438582 37.3122174,322.080702 30.0236347,307.181809 C22.7354695,292.282915 25.5335373,273.805345 34.2382661,259.68913 C40.4245669,249.656384 49.8267258,239.436847 47.2653085,227.928586 C44.3687407,214.912635 28.6917979,210.355714 17.910639,202.526838 C7.15452246,194.715929 0.336736441,181.72714 0.0124377119,168.427869 C-0.312695763,155.128599 5.86317076,141.821806 16.2248699,133.494405 C22.7221136,128.272647 30.6000267,125.01448 37.1949356,119.916413 C43.7894271,114.818763 49.2532555,106.823154 47.7444525,98.6198618 C46.9464356,94.2802362 44.3215775,90.5331565 41.7639165,86.9398546 C37.3756581,80.7749536 32.9869822,74.6100527 28.5983064,68.4447338 C23.9821623,61.9589053 19.1535754,54.7748087 19.6473275,46.8260019 C20.3614525,35.3290237 31.8721792,27.5273087 42.9409081,24.3836396 C63.7811708,18.4652845 87.30055,22.9532556 104.505078,36.1317604 C113.910993,43.3363329 122.642016,53.4325961 134.47245,53.9708184 C147.994914,54.5859295 158.143336,42.5854126 168.757128,34.1740188 C197.396838,11.4784246 242.947662,14.175386 268.716681,40.0911203 C281.65065,53.0991324 290.603715,71.3819729 307.633781,78.1778643 C326.660141,85.7693884 349.2517,76.1056251 368.337328,83.5462966 C382.746292,89.1646179 392.304548,104.206425 393.608003,119.632676 C394.911459,135.059345 388.813641,150.50064 379.175667,162.607297 C373.168836,170.152855 365.834342,176.576838 360.010739,184.265727 C354.187135,191.95378 349.849378,201.496359 351.237561,211.045207 C353.489705,226.537483 369.155796,235.958879 377.512018,249.192125 C390.723122,270.112589 381.944936,301.261364 360.289126,313.200454 C339.810726,324.490584 317.41408,316.98556 300.550546,303.266326 C284.497133,290.206915 262.812107,291.469731 245.725696,303.388345" id="Fill-1" fill="#F9F9F9"></path>
                    <path d="M294.479857,45.7691976 C290.546535,45.7691976 287.357806,42.5762193 287.357806,38.6385889 C287.357806,34.7001227 290.546535,31.5075623 294.479857,31.5075623 C298.413179,31.5075623 301.601908,34.7001227 301.601908,38.6385889 C301.601908,42.5762193 298.413179,45.7691976 294.479857,45.7691976 Z" id="Stroke-3" stroke="#B3B3B3" stroke-width="2"></path>
                    <path d="M50.4143451,7.5487756 C48.4476841,7.5487756 46.8533197,5.95249541 46.8533197,3.98347126 C46.8533197,2.0144471 48.4476841,0.418166908 50.4143451,0.418166908 C52.3810061,0.418166908 53.9753706,2.0144471 53.9753706,3.98347126 C53.9753706,5.95249541 52.3810061,7.5487756 50.4143451,7.5487756 Z" id="Stroke-5" stroke="#B3B3B3" stroke-width="2"></path>
                    <path d="M140.322098,311.885403 C144.162346,310.981123 144.894418,310.248171 145.797613,306.403727 C146.700808,310.248171 147.433297,310.981123 151.273128,311.885403 C147.433297,312.790101 146.700808,313.523053 145.797613,317.367497 C144.894418,313.523053 144.162346,312.790101 140.322098,311.885403" id="Fill-7" fill="#CCCCCC"></path>
                    <path d="M197.9163,51.1819664 C201.756131,50.2776862 202.48862,49.5447345 203.391815,45.7002901 C204.29501,49.5447345 205.0275,50.2776862 208.86733,51.1819664 C205.0275,52.0866645 204.29501,52.8196162 203.391815,56.6640606 C202.48862,52.8196162 201.756131,52.0866645 197.9163,51.1819664" id="Fill-9" fill="#CCCCCC"></path>
                    <path d="M345.146421,289.145096 C348.986669,288.240816 349.718741,287.507446 350.621936,283.663002 C351.525131,287.507446 352.25762,288.240816 356.09745,289.145096 C352.25762,290.049376 351.525131,290.782746 350.621936,294.62719 C349.718741,290.782746 348.986669,290.049376 345.146421,289.145096" id="Fill-11" fill="#CCCCCC"></path>
                    <path d="M10.5324047,69.8618713 C14.3726525,68.9575911 15.1047246,68.2242215 16.0079195,64.3797771 C16.9111144,68.2242215 17.6436038,68.9575911 21.4834343,69.8618713 C17.6436038,70.7661514 16.9111144,71.499521 16.0079195,75.3439655 C15.1047246,71.499521 14.3726525,70.7661514 10.5324047,69.8618713" id="Fill-13" fill="#CCCCCC"></path>
                    <path d="M278.676951,270.480318 L94.6968983,270.480318 C93.4322585,270.480318 92.4067733,269.453601 92.4067733,268.187442 L92.4067733,57.4145213 C92.4067733,56.1483618 93.4322585,55.1220623 94.6968983,55.1220623 L278.676951,55.1220623 C279.941591,55.1220623 280.967076,56.1483618 280.967076,57.4145213 L280.967076,268.187442 C280.967076,269.453601 279.941591,270.480318 278.676951,270.480318" id="Fill-15" fill="#E6E6E6"></path>
                    <path d="M280.966993,74.1185488 L92.4066898,74.1185488 L92.4066898,57.8001357 C92.4066898,56.3208604 93.60455,55.1219787 95.0816326,55.1219787 L278.29205,55.1219787 C279.76955,55.1219787 280.966993,56.3208604 280.966993,57.8001357 L280.966993,74.1185488 Z" id="Fill-17" fill="#FAB071"></path>
                    <path d="M105.400342,64.6518969 C105.400342,65.4742737 104.734215,66.1407833 103.912825,66.1407833 C103.091436,66.1407833 102.425726,65.4742737 102.425726,64.6518969 C102.425726,63.8291022 103.091436,63.1630104 103.912825,63.1630104 C104.734215,63.1630104 105.400342,63.8291022 105.400342,64.6518969" id="Fill-19" fill="#FAFAFA"></path>
                    <path d="M114.324359,64.6518969 C114.324359,65.4742737 113.658649,66.1407833 112.837259,66.1407833 C112.015452,66.1407833 111.349742,65.4742737 111.349742,64.6518969 C111.349742,63.8291022 112.015452,63.1630104 112.837259,63.1630104 C113.658649,63.1630104 114.324359,63.8291022 114.324359,64.6518969" id="Fill-21" fill="#FAFAFA"></path>
                    <path d="M123.248751,64.6518969 C123.248751,65.4742737 122.582624,66.1407833 121.761234,66.1407833 C120.939844,66.1407833 120.274135,65.4742737 120.274135,64.6518969 C120.274135,63.8291022 120.939844,63.1630104 121.761234,63.1630104 C122.582624,63.1630104 123.248751,63.8291022 123.248751,64.6518969" id="Fill-23" fill="#FAFAFA"></path>
                    <mask id="mask-2" fill="white">
                        <use xlink:href="#path-1"></use>
                    </mask>
                    <g id="Clip-26"></g>
                    <polygon id="Fill-25" fill="#FAFAFA" mask="url(#mask-2)" points="110.855489 157.427493 180.950761 157.427493 180.950761 99.0353961 110.855489 99.0353961"></polygon>
                    <polygon id="Fill-27" fill="#FCE3B0" mask="url(#mask-2)" points="110.736121 139.793778 131.449502 125.262614 145.903125 135.274049 168.634922 116.016725 180.950761 128.231194 180.950761 157.427242 110.855907 157.427242"></polygon>
                    <path d="M152.98636,116.016558 C152.98636,119.263442 150.357746,121.894797 147.115176,121.894797 C143.872606,121.894797 141.243574,119.263442 141.243574,116.016558 C141.243574,112.770092 143.872606,110.138319 147.115176,110.138319 C150.357746,110.138319 152.98636,112.770092 152.98636,116.016558" id="Fill-28" fill="#FCE3B0" mask="url(#mask-2)"></path>
                    <polygon id="Fill-29" fill="#FAFAFA" mask="url(#mask-2)" points="112.127225 236.010027 182.222496 236.010027 182.222496 177.61793 112.127225 177.61793"></polygon>
                    <polygon id="Fill-30" fill="#FCE3B0" mask="url(#mask-2)" points="112.007606 218.376605 132.720987 203.845858 147.175027 213.857293 169.906406 194.599969 182.222663 206.81402 182.222663 236.010068 112.127392 236.010068"></polygon>
                    <path d="M154.257845,194.599802 C154.257845,197.846268 151.629231,200.478041 148.386661,200.478041 C145.144091,200.478041 142.515059,197.846268 142.515059,194.599802 C142.515059,191.352918 145.144091,188.721563 148.386661,188.721563 C151.629231,188.721563 154.257845,191.352918 154.257845,194.599802" id="Fill-31" fill="#FCE3B0" mask="url(#mask-2)"></path>
                    <polygon id="Fill-32" fill="#F2F2F2" mask="url(#mask-2)" points="186.500985 106.875138 267.2401 106.875138 267.2401 103.601928 186.500985 103.601928"></polygon>
                    <polygon id="Fill-33" fill="#F2F2F2" mask="url(#mask-2)" points="186.500985 117.289821 241.156799 117.289821 241.156799 114.340046 186.500985 114.340046"></polygon>
                    <path d="M191.296224,127.424069 C190.767412,127.360552 190.301207,127.46335 189.904285,127.811439 C189.473974,128.189197 189.235237,128.676857 189.105851,129.225108 C188.956014,129.861531 188.943076,130.507147 189.004012,131.154852 C189.052427,131.671763 189.169292,132.171958 189.452688,132.615741 C189.548684,132.76534 189.677235,132.894881 189.790343,133.033615 C189.801612,133.027765 189.813298,133.021497 189.824567,133.016064 C190.313728,131.156523 190.803307,129.296564 191.296224,127.424069 L191.296224,127.424069 Z M192.344247,124.754688 C192.595088,124.895093 192.635991,124.994548 192.561699,125.279538 C192.47405,125.614255 192.386402,125.948973 192.301675,126.273243 C192.510779,126.398188 192.717796,126.50976 192.912292,126.640555 C193.471571,127.01706 193.853885,127.530627 194.043372,128.180004 C194.119751,128.441176 194.143542,128.706526 194.017078,128.964772 C193.862232,129.279432 193.562559,129.411062 193.230747,129.308265 C193.03959,129.248927 192.943595,129.093895 192.852607,128.934267 C192.703605,128.673932 192.570881,128.403149 192.403514,128.15535 C192.281641,127.974828 192.114275,127.825229 191.967777,127.661422 L191.931048,127.679808 C191.435209,129.564004 190.938953,131.447782 190.438523,133.348693 C190.534101,133.367079 190.622584,133.389226 190.712737,133.400091 C191.592141,133.50456 192.322961,133.065792 192.649347,132.239236 C192.734074,132.023613 192.808366,131.802557 192.904779,131.592784 C193.034999,131.310719 193.227826,131.198311 193.494944,131.222965 C193.77208,131.248038 194.007896,131.441514 194.08344,131.711043 C194.173593,132.032388 194.105561,132.345794 194.006643,132.648753 C193.737021,133.471965 193.2224,134.092091 192.439826,134.4757 C192.086728,134.6487 191.708588,134.733946 191.31584,134.760272 C190.90765,134.787434 190.503215,134.761108 190.089599,134.678787 C190.032836,134.893156 189.977743,135.102511 189.921398,135.311449 C189.900946,135.387502 189.883417,135.464391 189.853366,135.536683 C189.787004,135.696311 189.61922,135.776543 189.459366,135.733084 C189.294504,135.687953 189.189326,135.542533 189.214785,135.367444 C189.23315,135.237067 189.273635,135.110451 189.306607,134.982164 C189.344171,134.836743 189.382569,134.692159 189.423054,134.547574 C189.438915,134.491579 189.430985,134.458567 189.372552,134.429734 C188.684722,134.088748 188.231455,133.526289 187.904235,132.850586 C187.490618,131.997287 187.362902,131.08841 187.398796,130.149446 C187.423421,129.505084 187.527347,128.877019 187.776936,128.279458 C188.190135,127.289514 188.87254,126.571606 189.899694,126.220591 C190.406802,126.047173 190.932275,126.004968 191.464843,126.077678 C191.521188,126.0852 191.577951,126.090632 191.643896,126.097318 C191.705667,125.866651 191.766186,125.639746 191.826705,125.413258 C191.852165,125.316729 191.882215,125.221036 191.90058,125.122417 C191.931883,124.954432 192.010766,124.824891 192.172707,124.754688 L192.344247,124.754688 Z" id="Fill-34" fill="#FCCBA0" mask="url(#mask-2)"></path>
                    <path d="M201.482919,127.424069 C200.954107,127.360552 200.487902,127.46335 200.09098,127.811439 C199.660669,128.189197 199.421931,128.676857 199.292546,129.225108 C199.142709,129.861531 199.130188,130.507147 199.190707,131.154852 C199.239122,131.671763 199.355986,132.171958 199.639383,132.615741 C199.735378,132.76534 199.863929,132.894881 199.977037,133.033615 C199.988306,133.027765 199.999993,133.021497 200.011262,133.016064 C200.50084,131.156523 200.990001,129.296564 201.482919,127.424069 L201.482919,127.424069 Z M202.530942,124.754688 C202.781783,124.895093 202.822686,124.994548 202.748393,125.279538 C202.660745,125.614255 202.573097,125.948973 202.48837,126.273243 C202.697474,126.398188 202.904491,126.50976 203.098986,126.640555 C203.658266,127.01706 204.04058,127.530627 204.230067,128.180004 C204.306446,128.441176 204.330236,128.706526 204.203772,128.964772 C204.048927,129.279432 203.749253,129.411062 203.417442,129.308265 C203.226285,129.248927 203.130289,129.093895 203.039302,128.934267 C202.8903,128.673932 202.757575,128.403149 202.590209,128.15535 C202.468336,127.974828 202.301387,127.825229 202.154472,127.661422 C202.142368,127.66769 202.129847,127.673958 202.117743,127.679808 C201.621904,129.564004 201.125647,131.447782 200.625217,133.348693 C200.720796,133.367079 200.809279,133.389226 200.899431,133.400091 C201.778836,133.50456 202.510073,133.065792 202.836042,132.239236 C202.920768,132.023613 202.995061,131.802557 203.091474,131.592784 C203.221694,131.310719 203.41452,131.198311 203.681639,131.222965 C203.958775,131.248038 204.19459,131.441514 204.270135,131.711043 C204.360287,132.032388 204.292256,132.345794 204.193338,132.648753 C203.923715,133.471965 203.409094,134.092091 202.62652,134.4757 C202.273423,134.6487 201.895283,134.733946 201.502535,134.760272 C201.094344,134.787434 200.68991,134.761108 200.276294,134.678787 C200.219531,134.893156 200.164438,135.102511 200.108092,135.311449 C200.087641,135.387502 200.070111,135.464391 200.040061,135.536683 C199.973698,135.696311 199.805914,135.776543 199.646061,135.733084 C199.481198,135.687953 199.37602,135.542533 199.40148,135.367444 C199.420262,135.237067 199.46033,135.110451 199.493302,134.982164 C199.530866,134.836743 199.569264,134.692159 199.609749,134.547574 C199.625609,134.491579 199.617679,134.458567 199.559247,134.429734 C198.871417,134.088748 198.41815,133.526289 198.090929,132.850586 C197.677313,131.997287 197.549597,131.08841 197.585491,130.149446 C197.610116,129.505084 197.714042,128.877019 197.963631,128.279458 C198.37683,127.289514 199.059234,126.571606 200.086389,126.220591 C200.593497,126.047173 201.118969,126.004968 201.651537,126.077678 C201.707883,126.0852 201.764645,126.090632 201.83059,126.097318 C201.892361,125.866651 201.952881,125.639746 202.0134,125.413258 C202.038859,125.316729 202.06891,125.221036 202.087275,125.122417 C202.118578,124.954432 202.197461,124.824891 202.359402,124.754688 L202.530942,124.754688 Z" id="Fill-35" fill="#FCCBA0" mask="url(#mask-2)"></path>
                    <path d="M190.403797,205.89549 C189.874986,205.831973 189.40878,205.934771 189.011859,206.28286 C188.581547,206.660618 188.34281,207.148278 188.213842,207.696111 C188.063587,208.332952 188.051066,208.978568 188.111585,209.626273 C188.160418,210.143184 188.276865,210.643379 188.560679,211.087162 C188.656674,211.236761 188.784808,211.366302 188.898333,211.505036 C188.909602,211.498768 188.920871,211.493336 188.932558,211.487486 C189.421719,209.627944 189.91088,207.767986 190.403797,205.89549 L190.403797,205.89549 Z M191.451821,203.226109 C191.702662,203.366514 191.743982,203.465969 191.669272,203.750959 C191.582041,204.085676 191.494393,204.420394 191.409666,204.744664 C191.618352,204.869609 191.825369,204.981181 192.019865,205.111976 C192.579145,205.488481 192.961458,206.002048 193.151363,206.651425 C193.227325,206.912597 193.251115,207.177947 193.124651,207.436193 C192.969806,207.750853 192.670132,207.882483 192.338321,207.779686 C192.147581,207.720348 192.051585,207.565316 191.960181,207.405688 C191.811596,207.145353 191.678871,206.87457 191.511087,206.626771 C191.389215,206.446249 191.222265,206.29665 191.07535,206.132843 C191.063246,206.139111 191.051143,206.145379 191.038621,206.151229 C190.542782,208.035007 190.046943,209.919203 189.546096,211.820114 C189.641674,211.8385 189.730157,211.860647 189.82031,211.871512 C190.700132,211.975981 191.430952,211.537213 191.75692,210.710657 C191.842064,210.495034 191.915939,210.274396 192.01277,210.064205 C192.142573,209.78214 192.335816,209.669732 192.602518,209.694386 C192.879653,209.719459 193.115886,209.912935 193.191431,210.182464 C193.281583,210.503809 193.213134,210.816797 193.114217,211.120174 C192.845011,211.943386 192.329973,212.563512 191.547399,212.947121 C191.194301,213.120121 190.816162,213.205367 190.423831,213.231693 C190.01564,213.258855 189.611206,213.232529 189.19759,213.150208 C189.14041,213.364577 189.085734,213.573932 189.029388,213.78287 C189.00852,213.858505 188.991407,213.935812 188.961357,214.008104 C188.894577,214.167314 188.726793,214.247546 188.566939,214.204505 C188.402494,214.159374 188.297316,214.013954 188.322359,213.838865 C188.34114,213.708488 188.381626,213.581454 188.414181,213.453585 C188.451744,213.308164 188.49056,213.16358 188.531045,213.018995 C188.546488,212.963 188.538558,212.929988 188.480126,212.901155 C187.792295,212.560169 187.339446,211.99771 187.012225,211.322007 C186.598609,210.468708 186.470475,209.559831 186.506369,208.620449 C186.530994,207.976505 186.635337,207.34844 186.884509,206.750461 C187.298126,205.760935 187.980113,205.043027 189.007685,204.691594 C189.514793,204.518594 190.039848,204.476389 190.572833,204.549099 C190.629179,204.556621 190.685524,204.561635 190.751469,204.568739 C190.81324,204.337655 190.874176,204.111167 190.934278,203.884679 C190.960155,203.78815 190.989789,203.692457 191.008153,203.593838 C191.039456,203.425853 191.11834,203.295894 191.28028,203.226109 L191.451821,203.226109 Z" id="Fill-36" fill="#FCCBA0" mask="url(#mask-2)"></path>
                    <path d="M200.794712,205.89549 C200.265484,205.831973 199.799696,205.934771 199.402774,206.28286 C198.972462,206.660618 198.733725,207.148278 198.60434,207.696111 C198.454503,208.332952 198.441564,208.978568 198.502501,209.626273 C198.550916,210.143184 198.66778,210.643379 198.951176,211.087162 C199.047172,211.236761 199.175306,211.366302 199.288831,211.505036 C199.3001,211.498768 199.311787,211.493336 199.323056,211.487486 C199.812217,209.627944 200.301795,207.767986 200.794712,205.89549 L200.794712,205.89549 Z M201.842736,203.226109 C202.093577,203.366514 202.134479,203.465969 202.060187,203.750959 C201.972539,204.085676 201.88489,204.420394 201.800164,204.744664 C202.009268,204.869609 202.216285,204.981181 202.41078,205.111976 C202.97006,205.488481 203.352374,206.002048 203.541861,206.651425 C203.61824,206.912597 203.64203,207.177947 203.515566,207.436193 C203.360721,207.750853 203.061047,207.882483 202.729236,207.779686 C202.538079,207.720348 202.442083,207.565316 202.351096,207.405688 C202.202094,207.145353 202.069369,206.87457 201.902003,206.626771 C201.78013,206.446249 201.612763,206.29665 201.465848,206.132843 C201.454162,206.139111 201.44164,206.145379 201.429537,206.151229 C200.933698,208.035007 200.437441,209.919203 199.937011,211.820114 C200.03259,211.8385 200.121073,211.860647 200.211225,211.871512 C201.09063,211.975981 201.82145,211.537213 202.147835,210.710657 C202.232562,210.495034 202.306854,210.274396 202.403268,210.064205 C202.533488,209.78214 202.726314,209.669732 202.993433,209.694386 C203.270568,209.719459 203.506384,209.912935 203.581929,210.182464 C203.672081,210.503809 203.604049,210.816797 203.504715,211.120174 C203.235509,211.943386 202.720471,212.563512 201.938314,212.947121 C201.585217,213.120121 201.207077,213.205367 200.814329,213.231693 C200.406138,213.258855 200.001704,213.232529 199.588087,213.150208 C199.531325,213.364577 199.476232,213.573932 199.419886,213.78287 C199.399435,213.858505 199.381905,213.935812 199.351854,214.008104 C199.285492,214.167314 199.117708,214.247546 198.957854,214.204505 C198.792992,214.159374 198.687814,214.013954 198.713274,213.838865 C198.731638,213.708488 198.772124,213.581454 198.805096,213.453585 C198.84266,213.308164 198.881058,213.16358 198.921543,213.018995 C198.937403,212.963 198.929473,212.929988 198.871041,212.901155 C198.18321,212.560169 197.729943,211.99771 197.402723,211.322007 C196.989107,210.468708 196.86139,209.559831 196.897285,208.620449 C196.92191,207.976505 197.025835,207.34844 197.275424,206.750461 C197.688624,205.760935 198.371028,205.043027 199.398183,204.691594 C199.905291,204.518594 200.430763,204.476389 200.963331,204.549099 C201.019676,204.556621 201.076439,204.561635 201.142384,204.568739 C201.204155,204.337655 201.264674,204.111167 201.325193,203.884679 C201.350653,203.78815 201.380704,203.692457 201.399068,203.593838 C201.430371,203.425853 201.509255,203.295894 201.671196,203.226109 L201.842736,203.226109 Z" id="Fill-37" fill="#FCCBA0" mask="url(#mask-2)"></path>
                    <path d="M211.185419,205.89549 C210.656608,205.831973 210.190402,205.934771 209.793481,206.28286 C209.363169,206.660618 209.124432,207.148278 208.995046,207.696111 C208.845209,208.332952 208.832688,208.978568 208.893207,209.626273 C208.941622,210.143184 209.058487,210.643379 209.3423,211.087162 C209.437879,211.236761 209.56643,211.366302 209.679538,211.505036 C209.690807,211.498768 209.702493,211.493336 209.713762,211.487486 C210.203341,209.627944 210.692502,207.767986 211.185419,205.89549 L211.185419,205.89549 Z M212.233442,203.226109 C212.484283,203.366514 212.525186,203.465969 212.450894,203.750959 C212.363245,204.085676 212.275597,204.420394 212.19087,204.744664 C212.399974,204.869609 212.606991,204.981181 212.801487,205.111976 C213.360767,205.488481 213.74308,206.002048 213.932567,206.651425 C214.008947,206.912597 214.032737,207.177947 213.906273,207.436193 C213.751428,207.750853 213.451754,207.882483 213.119942,207.779686 C212.928786,207.720348 212.83279,207.565316 212.741803,207.405688 C212.5928,207.145353 212.460076,206.87457 212.292709,206.626771 C212.170836,206.446249 212.003887,206.29665 211.856972,206.132843 C211.844868,206.139111 211.832347,206.145379 211.820243,206.151229 C211.324404,208.035007 210.828148,209.919203 210.327718,211.820114 C210.423296,211.8385 210.511779,211.860647 210.601932,211.871512 C211.481336,211.975981 212.212574,211.537213 212.538542,210.710657 C212.623686,210.495034 212.697561,210.274396 212.793974,210.064205 C212.924194,209.78214 213.117021,209.669732 213.384139,209.694386 C213.661275,209.719459 213.897091,209.912935 213.972635,210.182464 C214.062788,210.503809 213.994756,210.816797 213.895839,211.120174 C213.626216,211.943386 213.111595,212.563512 212.329021,212.947121 C211.975923,213.120121 211.597783,213.205367 211.205453,213.231693 C210.796845,213.258855 210.392828,213.232529 209.978794,213.150208 C209.922031,213.364577 209.866938,213.573932 209.810593,213.78287 C209.790142,213.858505 209.773029,213.935812 209.742561,214.008104 C209.676199,214.167314 209.508415,214.247546 209.348561,214.204505 C209.183699,214.159374 209.078521,214.013954 209.103981,213.838865 C209.122762,213.708488 209.16283,213.581454 209.195803,213.453585 C209.233366,213.308164 209.271764,213.16358 209.31225,213.018995 C209.32811,212.963 209.32018,212.929988 209.261747,212.901155 C208.573917,212.560169 208.12065,211.99771 207.79343,211.322007 C207.379813,210.468708 207.252097,209.559831 207.287991,208.620449 C207.312616,207.976505 207.416542,207.34844 207.666131,206.750461 C208.07933,205.760935 208.761735,205.043027 209.788889,204.691594 C210.295997,204.518594 210.82147,204.476389 211.354038,204.549099 C211.410383,204.556621 211.467146,204.561635 211.533091,204.568739 C211.594862,204.337655 211.655381,204.111167 211.7159,203.884679 C211.74136,203.78815 211.771411,203.692457 211.789775,203.593838 C211.821078,203.425853 211.899961,203.295894 212.061902,203.226109 L212.233442,203.226109 Z" id="Fill-38" fill="#FCCBA0" mask="url(#mask-2)"></path>
                    <polygon id="Fill-39" fill="#F2F2F2" mask="url(#mask-2)" points="186.500985 185.150534 267.2401 185.150534 267.2401 181.877324 186.500985 181.877324"></polygon>
                    <polygon id="Fill-40" fill="#F2F2F2" mask="url(#mask-2)" points="186.500985 195.565217 241.156799 195.565217 241.156799 192.615442 186.500985 192.615442"></polygon>
                    <path d="M268.400354,203.925672 C268.800615,204.890962 268.81564,205.553293 269.154547,206.590875 C269.474672,207.570791 269.809823,208.846979 269.849056,209.877457 C269.999727,213.857711 269.254717,217.868469 267.685395,221.528631 C270.701331,221.809025 273.927624,221.983696 276.956499,221.955281 C279.043363,221.935641 281.404024,221.958297 283.623196,221.785206 C283.053899,219.570054 282.024657,217.028542 281.798441,214.752798 C281.654865,213.311967 281.626484,211.769593 281.773816,210.328762 C282.056378,207.565776 283.108575,205.21189 284.177467,202.648648 C283.612761,202.519525 282.945382,202.426339 282.367321,202.383298 C281.396929,202.310588 280.426119,202.237878 279.455727,202.165167 C278.583418,202.099979 277.710274,202.034791 276.83546,202.029776 C273.91552,202.013479 270.610344,200.989687 267.881143,202.029358 C267.961278,202.073653 268.120297,203.014288 268.400354,203.925672" id="Fill-41" fill="#754C24" mask="url(#mask-2)"></path>
                    <path d="M263.034442,194.967072 C264.347914,194.967072 265.41305,196.03307 265.41305,197.34812 C265.41305,198.663589 264.347914,199.729586 263.034442,199.729586 C261.720969,199.729586 260.655834,198.663589 260.655834,197.34812 C260.655834,196.03307 261.720969,194.967072 263.034442,194.967072" id="Fill-42" fill="#754C24" mask="url(#mask-2)"></path>
                    <path d="M288.162209,194.368843 C289.475682,194.368843 290.540817,195.435258 290.540817,196.750309 C290.540817,198.065778 289.475682,199.131775 288.162209,199.131775 C286.848737,199.131775 285.783601,198.065778 285.783601,196.750309 C285.783601,195.435258 286.848737,194.368843 288.162209,194.368843" id="Fill-43" fill="#754C24" mask="url(#mask-2)"></path>
                    <path d="M263.404318,198.827939 C264.650176,198.827939 265.659801,199.838777 265.659801,201.085714 C265.659801,202.333487 264.650176,203.344325 263.404318,203.344325 C262.158877,203.344325 261.148835,202.333487 261.148835,201.085714 C261.148835,199.838777 262.158877,198.827939 263.404318,198.827939" id="Fill-44" fill="#FCD78A" mask="url(#mask-2)"></path>
                    <path d="M287.763576,198.31784 C289.009434,198.31784 290.019059,199.329096 290.019059,200.576033 C290.019059,201.823388 289.009434,202.834644 287.763576,202.834644 C286.518136,202.834644 285.508093,201.823388 285.508093,200.576033 C285.508093,199.329096 286.518136,198.31784 287.763576,198.31784" id="Fill-45" fill="#FCD78A" mask="url(#mask-2)"></path>
                    <path d="M289.446925,191.411462 C286.957295,202.918887 282.394158,209.292726 275.74499,209.292726 C269.236478,209.292726 264.715912,202.535279 261.721261,193.238827 C262.815196,191.79925 263.639925,190.142796 264.122825,188.345936 C269.460189,188.088943 274.029588,184.8968 276.250011,180.344895 C278.770109,183.826206 282.824052,186.124933 287.418075,186.247371 C287.75406,188.121537 288.456916,189.867416 289.446925,191.411462" id="Fill-46" fill="#8C6239" mask="url(#mask-2)"></path>
                    <path d="M282.444493,189.99257 C283.095594,189.99257 283.623154,190.520763 283.623154,191.172229 C283.623154,191.824113 283.095594,192.351889 282.444493,192.351889 C281.793391,192.351889 281.265832,191.824113 281.265832,191.172229 C281.265832,190.520763 281.793391,189.99257 282.444493,189.99257" id="Fill-47" fill="#002784" mask="url(#mask-2)"></path>
                    <path d="M285.783309,189.756304 C285.728633,189.756304 285.673122,189.741678 285.623038,189.711173 C284.372171,188.938941 282.933904,188.511874 281.464334,188.475936 C281.295716,188.471758 281.162574,188.331352 281.16633,188.162531 C281.170504,187.993292 281.304481,187.854975 281.47936,187.864168 C283.056612,187.902613 284.600892,188.361439 285.943997,189.190084 C286.087574,189.278673 286.132233,189.467135 286.04375,189.610883 C285.985735,189.704905 285.885983,189.756304 285.783309,189.756304" id="Fill-48" fill="#002784" mask="url(#mask-2)"></path>
                    <path d="M276.226096,204.783025 C275.337509,204.783025 274.450174,204.650559 273.594977,204.386462 C273.433871,204.336735 273.342884,204.165407 273.392969,204.004107 C273.443054,203.84239 273.614594,203.751711 273.774865,203.801438 C275.179325,204.234774 276.678111,204.287426 278.108865,203.955216 C278.272475,203.915936 278.437338,204.019151 278.475736,204.183375 C278.513717,204.348436 278.41146,204.51266 278.247015,204.550687 C277.582558,204.7053 276.90391,204.783025 276.226096,204.783025" id="Fill-49" fill="#002784" mask="url(#mask-2)"></path>
                    <path d="M269.059637,189.99257 C269.710738,189.99257 270.238298,190.520763 270.238298,191.172229 C270.238298,191.824113 269.710738,192.351889 269.059637,192.351889 C268.408535,192.351889 267.880976,191.824113 267.880976,191.172229 C267.880976,190.520763 268.408535,189.99257 269.059637,189.99257" id="Fill-50" fill="#002784" mask="url(#mask-2)"></path>
                    <path d="M266.678691,189.708541 C266.574348,189.708541 266.472092,189.654217 266.415329,189.557688 C266.329768,189.41185 266.378183,189.224224 266.523846,189.138978 C267.883229,188.339166 269.434604,187.916695 271.011022,187.916695 L271.029386,187.916695 C271.198005,187.917113 271.334486,188.054176 271.334069,188.222997 C271.333651,188.392236 271.19717,188.528463 271.028551,188.528463 C271.026465,188.529717 271.016865,188.528463 271.011022,188.528463 C269.543121,188.528463 268.099011,188.921683 266.833537,189.665917 C266.784704,189.695169 266.73128,189.708541 266.678691,189.708541" id="Fill-51" fill="#002784" mask="url(#mask-2)"></path>
                    <path d="M276.253601,199.258433 C275.675122,199.258433 275.050315,199.12137 274.741042,198.728986 C274.636281,198.59652 274.658819,198.404298 274.791544,198.299411 C274.923851,198.194525 275.115842,198.217508 275.220603,198.349974 C275.366683,198.535093 275.880887,198.696392 276.548266,198.632457 C277.114641,198.578134 277.809984,198.345378 278.062495,197.856882 C278.515344,197.026984 278.308328,196.005699 277.574169,195.42151 C276.47773,194.611252 275.764022,192.717027 275.733972,192.636378 C275.675122,192.478003 275.755675,192.302496 275.913442,192.243158 C276.071626,192.18382 276.247758,192.264469 276.306607,192.422844 C276.313285,192.440812 276.98776,194.227643 277.945631,194.93594 C278.921866,195.711933 279.19441,197.058324 278.602158,198.14438 C278.295389,198.738597 277.547874,199.151039 276.606698,199.241718 C276.493173,199.252165 276.374639,199.258433 276.253601,199.258433" id="Fill-52" fill="#002784" mask="url(#mask-2)"></path>
                    <path d="M289.503771,191.148243 C289.485406,191.235997 289.467459,191.32375 289.447008,191.411504 C288.457,189.867458 287.754144,188.121579 287.417741,186.246994 C282.824135,186.124975 278.770192,183.826248 276.250095,180.344519 C274.029671,184.896842 269.460273,188.088985 264.122908,188.345978 C263.640008,190.142837 262.815279,191.799292 261.721345,193.238869 C261.546048,192.692289 261.372839,192.135263 261.207976,191.570714 C260.861557,190.393562 260.68626,189.231036 260.659966,188.092746 C260.578161,184.817446 261.733449,181.768217 263.581158,179.280193 C266.087065,175.910453 269.865542,173.572864 273.585586,173.096069 C273.946197,173.04885 274.30472,173.020434 274.661156,173.010405 C275.649078,172.979482 276.661625,173.09398 277.672084,173.338436 C281.463082,174.24606 285.215682,176.96099 287.51958,180.642045 C288.558421,182.302678 289.304267,184.158458 289.623974,186.137093 C289.886919,187.742149 289.870642,189.424929 289.503771,191.148243" id="Fill-53" fill="#002784" mask="url(#mask-2)"></path>
                    <path d="M287.763576,166.073774 C287.763576,172.808655 282.3106,178.268184 275.583801,178.268184 C268.857419,178.268184 263.404443,172.808655 263.404443,166.073774 C263.404443,159.33931 268.857419,153.879363 275.583801,153.879363 C282.3106,153.879363 287.763576,159.33931 287.763576,166.073774" id="Fill-54" fill="#002784" mask="url(#mask-2)"></path>
                    <path d="M308.676044,231.922839 C308.87847,231.469445 310.394786,262.355378 309.269131,267.274177 C308.483218,270.707851 301.081945,276.163619 299.168708,276.163619 C297.25547,276.163619 295.602674,270.551566 295.602674,270.551566 L300.396619,267.274177 L296.877748,239.26531 L308.676044,231.922839 Z" id="Fill-55" fill="#8C6239" mask="url(#mask-2)"></path>
                    <path d="M255.222974,239.056498 L251.704521,267.064947 L256.498466,270.342754 C256.498466,270.342754 254.845669,275.954807 252.932432,275.954807 C251.019195,275.954807 243.617921,270.498621 242.832008,267.064947 C241.705936,262.146148 243.222669,231.260633 243.424678,231.713609 L255.222974,239.056498 Z" id="Fill-56" fill="#8C6239" mask="url(#mask-2)"></path>
                    <path d="M298.792989,243.690683 C298.81177,243.19007 299.08515,242.73584 299.517548,242.483444 C302.48173,240.757623 312.464037,235.852195 312.474503,233.866874 C312.491167,230.509671 305.941334,225.238604 301.706251,221.383712 C296.511628,216.655881 281.649397,214.197526 281.649397,214.197526 C281.649397,214.197526 281.616425,220.715531 276.044497,220.701741 C270.118219,220.687534 270.024311,214.197526 270.024311,214.197526 C270.024311,214.197526 256.462614,216.08799 252.225444,219.131787 C247.934016,222.214029 240.944272,230.362162 240.657955,233.153563 C240.372054,235.945381 252.489224,241.406582 254.306048,242.099836 C256.273544,242.850756 255.031859,259.022077 255.031859,259.022077 L298.229953,258.498063 L298.792989,243.690683 Z" id="Fill-57" fill="#3E5FAA" mask="url(#mask-2)"></path>
                    <path d="M251.448045,280.570105 C250.650446,281.067793 249.842412,281.707559 249.563607,282.654462 C249.187136,283.933158 249.895418,285.265759 250.617473,286.358083 C255.619687,293.922027 262.828552,299.762658 270.958141,302.838213 C277.204543,305.201293 284.440119,305.846909 290.214473,302.356404 C296.857797,298.340631 300.030249,289.892464 301.479367,281.829996 C301.698906,280.607295 301.848325,279.196551 301.099558,278.247977 C300.675925,277.711426 300.038596,277.434793 299.416293,277.218752 C295.548081,275.876957 291.376857,276.154008 287.324583,276.4858 C280.372403,277.054527 273.428571,277.741513 266.496425,278.549682 C261.12734,279.175658 256.48198,277.429361 251.448045,280.570105" id="Fill-58" fill="#999999" mask="url(#mask-2)"></path>
                    <path d="M267.523412,321.997629 C267.523412,321.997629 261.663497,316.66973 261.271584,316.156163 C260.879253,315.642595 252.832304,318.469098 253.556864,321.388786 C254.019313,323.25752 272.375789,340.112484 273.632082,337.871842 C277.404715,331.181672 267.523412,321.997629 267.523412,321.997629" id="Fill-59" fill="#E6E6E6" mask="url(#mask-2)"></path>
                    <path d="M289.206226,322.715036 C289.206226,322.715036 292.660404,315.839748 292.83737,315.237173 C293.013918,314.635434 301.291257,314.386381 301.654372,317.28434 C301.88351,319.140956 291.121967,340.825294 289.202469,339.233611 C283.450236,334.489065 289.206226,322.715036 289.206226,322.715036" id="Fill-60" fill="#E6E6E6" mask="url(#mask-2)"></path>
                    <path d="M268.449688,324.367353 C268.449688,324.367353 318.371658,300.714826 326.940741,291.248718 C334.610385,282.776314 329.616936,269.875696 313.748419,272.644532 C297.719631,275.441783 260.952001,316.542237 260.952001,316.542237 L268.449688,324.367353 Z" id="Fill-61" fill="#CCCCCC" mask="url(#mask-2)"></path>
                    <path d="M298.635848,284.271803 C298.592858,284.263028 307.775062,278.70488 316.204324,278.040878 C321.14435,277.651837 323.477464,282.85312 318.849216,287.770665 C310.851935,296.267723 269.543706,319.16724 269.543706,319.16724" id="Stroke-62" stroke="#F2F2F2" mask="url(#mask-2)"></path>
                    <path d="M292.779605,316.708509 C292.779605,316.708509 259.078832,283.231756 246.685779,276.583792 C236.268152,270.995557 218.349499,280.772565 228.172788,293.66984 C238.614622,307.379881 288.698533,324.839927 288.698533,324.839927 L292.779605,316.708509 Z" id="Fill-63" fill="#CCCCCC" mask="url(#mask-2)"></path>
                    <path d="M260.476196,284.744377 C260.517934,284.731841 248.076883,280.0178 240.073758,281.352073 C236.407554,281.963005 233.20547,286.827899 238.657194,291.74252 C247.32269,299.554682 288.158453,319.167199 288.158453,319.167199" id="Stroke-64" stroke="#F2F2F2" mask="url(#mask-2)"></path>
                    <path d="M249.767577,246.060783 L302.234687,246.060783 C304.680492,246.060783 306.663013,248.530839 306.663013,251.577561 L306.663013,281.186051 C306.663013,284.232774 304.680492,286.702829 302.234687,286.702829 L249.767577,286.702829 C247.321772,286.702829 245.339251,284.232774 245.339251,281.186051 L245.339251,251.577561 C245.339251,248.530839 247.321772,246.060783 249.767577,246.060783" id="Fill-65" fill="#E6E6E6" mask="url(#mask-2)"></path>
                    <path d="M276.001132,256.758619 C280.348071,256.758619 283.87195,260.414602 283.87195,264.924302 C283.87195,269.434003 280.348071,273.089986 276.001132,273.089986 C271.654193,273.089986 268.130314,269.434003 268.130314,264.924302 C268.130314,260.414602 271.654193,256.758619 276.001132,256.758619" id="Fill-66" fill="#FFFFFF" mask="url(#mask-2)"></path>
                    <path d="M53.67361,134.469975 L47.0490676,145.819026 L27.4959828,133.488806 C27.4959828,133.488806 24.1883028,135.495857 23.9712689,138.461511 C30.7126756,149.352154 39.9478854,161.14039 49.1881036,159.983714 C57.0977371,158.993352 66.9164341,138.277229 66.9164341,138.277229" id="Fill-67" fill="#8C6239" mask="url(#mask-2)"></path>
                    <path d="M92.9728979,97.8108988 C91.9411521,97.8108988 91.1043195,98.648737 91.1043195,99.6817225 C91.1043195,100.714708 91.9411521,101.552546 92.9728979,101.552546 C94.005061,101.552546 94.8414763,100.714708 94.8414763,99.6817225 C94.8414763,98.648737 94.005061,97.8108988 92.9728979,97.8108988" id="Fill-68" fill="#754C24" mask="url(#mask-2)"></path>
                    <path d="M70.9754271,97.8108988 C69.943264,97.8108988 69.1068487,98.648737 69.1068487,99.6817225 C69.1068487,100.714708 69.943264,101.552546 70.9754271,101.552546 C72.0071729,101.552546 72.8440055,100.714708 72.8440055,99.6817225 C72.8440055,98.648737 72.0071729,97.8108988 70.9754271,97.8108988" id="Fill-69" fill="#754C24" mask="url(#mask-2)"></path>
                    <path d="M74.7407566,120.036175 C74.850943,120.148166 75.0158053,120.180342 75.171068,120.204161 C79.8009854,120.950902 84.5665489,121.160675 89.158068,120.204161 C89.3963879,120.154434 89.6509854,120.092171 89.8095871,119.909142 C90.0078392,119.680146 89.9949006,119.18204 89.9694409,118.880753 C89.7390511,116.065533 89.4685934,112.793994 89.3567375,109.929047 C87.4138667,112.178465 84.7539494,113.503545 81.5485256,113.40618 C78.920746,113.324277 76.750407,112.372359 75.0750722,110.799062 C75.0734028,111.03934 75.0671422,111.277946 75.0592121,111.512373 C74.9486083,114.622195 74.8188053,116.518927 74.5934239,119.504221 C74.5804854,119.6931 74.608032,119.90162 74.7407566,120.036175" id="Fill-70" fill="#8C6239" mask="url(#mask-2)"></path>
                    <path d="M71.0135333,98.1316174 C71.2167939,101.310388 72.1112239,104.17032 73.645904,106.344521 L73.6475735,106.346192 C74.0766328,106.955035 74.5566117,107.509137 75.0845883,108.003064 C76.7603405,109.570093 78.925671,110.519922 81.5484422,110.600154 C84.7217282,110.697936 87.3607769,109.398347 89.3003087,107.189045 C91.3809125,104.820951 92.656404,101.404828 92.9235227,97.5453396 C92.9460608,97.2582599 92.9602515,96.9699266 92.9685989,96.6782502 C93.2035799,88.8080039 88.4714061,82.2787164 82.3998828,82.0977768 C76.3279422,81.9151657 71.2151244,88.1494338 70.9797261,96.0196802 C70.9592748,96.7359169 70.9701265,97.440871 71.0135333,98.1316174" id="Fill-71" fill="#8C6239" mask="url(#mask-2)"></path>
                    <path d="M75.0751975,110.798853 C76.7505322,112.372568 78.9204538,113.324068 81.5486508,113.405971 C84.7536572,113.503754 87.4135746,112.178674 89.3564453,109.928838 C89.3518542,109.793029 89.3468458,109.656802 89.3422547,109.521829 C89.3197165,108.857408 89.3581148,107.991573 89.3005174,107.188836 C87.3609856,109.398556 84.7219369,110.698145 81.5486508,110.599945 C78.9254623,110.520131 76.7601318,109.570302 75.084797,108.003273 C75.073528,108.921343 75.0877186,109.877858 75.0751975,110.798853" id="Fill-72" fill="#754C24" mask="url(#mask-2)"></path>
                    <path d="M76.4218928,95.699463 C75.910611,95.699463 75.4961597,96.1144123 75.4961597,96.6263085 C75.4961597,97.1382046 75.910611,97.5535717 76.4218928,97.5535717 C76.9331746,97.5535717 77.3476258,97.1382046 77.3476258,96.6263085 C77.3476258,96.1144123 76.9331746,95.699463 76.4218928,95.699463" id="Fill-73" fill="#002784" mask="url(#mask-2)"></path>
                    <path d="M73.7988294,95.5142193 C73.8418189,95.5142193 73.885643,95.5025188 73.9248761,95.4782821 C74.9077892,94.8719464 76.0376176,94.5363932 77.1916536,94.5079778 C77.3243782,94.5050527 77.4291388,94.3947338 77.4257998,94.2618498 C77.4224608,94.1293836 77.318535,94.0219899 77.1799672,94.0274222 C75.9407871,94.0579271 74.7283189,94.4181348 73.6727828,95.0691831 C73.5600922,95.1389681 73.5246155,95.2868957 73.5943167,95.3997217 C73.6398104,95.4732676 73.7182765,95.5142193 73.7988294,95.5142193" id="Fill-74" fill="#002784" mask="url(#mask-2)"></path>
                    <path d="M82.0782136,106.63766 C82.0798831,106.63766 82.0819699,106.63766 82.0840568,106.637242 C83.3228195,106.608408 84.5352877,106.249036 85.5912411,105.59966 C85.7039318,105.530293 85.7389911,105.381947 85.6697072,105.269121 C85.6004233,105.155877 85.4526733,105.120358 85.3395653,105.190143 C84.3562347,105.795225 83.2264064,106.129524 82.0723703,106.157104 C81.9400631,106.159611 81.8353025,106.26993 81.8382242,106.402814 C81.8415631,106.533609 81.9479932,106.63766 82.0782136,106.63766" id="Fill-75" fill="#002784" mask="url(#mask-2)"></path>
                    <path d="M86.9366843,95.699463 C86.4254025,95.699463 86.0109513,96.1144123 86.0109513,96.6263085 C86.0109513,97.1382046 86.4254025,97.5535717 86.9366843,97.5535717 C87.4479661,97.5535717 87.8624174,97.1382046 87.8624174,96.6263085 C87.8624174,96.1144123 87.4479661,95.699463 86.9366843,95.699463" id="Fill-76" fill="#002784" mask="url(#mask-2)"></path>
                    <path d="M88.8067235,95.4762345 C88.8893633,95.4762345 88.9694989,95.4336114 89.0141578,95.3579761 C89.0813549,95.2430606 89.0429566,95.0959688 88.9285964,95.0286911 C87.8609566,94.4006258 86.6426451,94.0688336 85.4042998,94.0688336 L85.3892744,94.0688336 C85.2569672,94.0692514 85.149285,94.177063 85.1497011,94.3095292 C85.1501197,94.4419954 85.2573845,94.5493891 85.3896917,94.5493891 L85.4042998,94.5493891 C86.5570837,94.5493891 87.6915032,94.8581983 88.685268,95.4432225 C88.7236663,95.4657877 88.7654036,95.4762345 88.8067235,95.4762345" id="Fill-77" fill="#002784" mask="url(#mask-2)"></path>
                    <path d="M81.2852468,102.978835 C81.7397659,102.978835 82.2305964,102.870606 82.4735074,102.56305 C82.5553125,102.458999 82.5377828,102.307729 82.433857,102.225407 C82.3299311,102.143086 82.1788422,102.160637 82.0966197,102.265106 C81.9822595,102.410108 81.5778252,102.537142 81.0540222,102.486579 C80.6086854,102.444374 80.0623443,102.261763 79.8640922,101.877736 C79.5084905,101.225852 79.6712659,100.423115 80.2480752,99.964707 C81.1091155,99.3282843 81.6700646,97.8393978 81.6934375,97.7767167 C81.7397659,97.6521901 81.6763252,97.5138737 81.5523655,97.4679075 C81.427571,97.4206877 81.2898379,97.4846225 81.2435095,97.6087312 C81.2380837,97.6229389 80.7084375,99.0269969 79.9559142,99.5831877 C79.1892002,100.192449 78.9750879,101.250089 79.4400413,102.103388 C79.6812828,102.570154 80.2685265,102.894424 81.0081112,102.965463 C81.0970117,102.973821 81.1905032,102.978417 81.2852468,102.978835" id="Fill-78" fill="#002784" mask="url(#mask-2)"></path>
                    <path d="M88.7606456,91.3766778 C86.580707,92.0093396 86.774368,92.1037792 84.5259803,92.2036512 C84.3377451,92.2120087 86.2388786,87.603272 86.2388786,87.603272 C84.7592917,89.9943493 83.1106689,92.2462744 82.9307811,92.2529604 C79.7616689,92.3666222 76.1689231,92.2086657 73.9743765,91.6633396 C73.8746244,92.031487 73.7252049,92.3791585 73.5353002,92.6988324 L70.9955862,91.6382671 C71.00769,91.3048034 71.0260544,90.9713396 71.0502621,90.6378758 C71.1362409,89.3554193 71.4196371,88.0934386 71.8895989,86.8966464 C72.7022239,84.9259507 74.1475862,83.3321778 76.5787833,82.2319145 C83.8794697,78.9503469 85.7609867,81.9644749 85.7609867,81.9644749 C86.9242049,81.9306271 89.1780184,79.1087213 91.7335926,86.9869072 C91.8913595,87.4691343 92.0462049,87.9818662 92.2039718,88.5472502 C92.3191667,88.9688855 92.4247621,89.3909386 92.5203405,89.8129918 C92.5883722,90.1355908 92.6463871,90.4606971 92.6993934,90.7858034 L89.1078998,92.7025932 C88.9238383,92.2926585 88.803635,91.8472043 88.7606456,91.3766778" id="Fill-79" fill="#002784" mask="url(#mask-2)"></path>
                    <path d="M71.0390347,94.5866217 C70.9730898,93.6050348 70.9588992,92.6209406 70.995628,91.6381 L73.5353419,92.6986652 C72.9890008,93.6184068 72.0999966,94.3053923 71.0390347,94.5866217" id="Fill-80" fill="#003794" mask="url(#mask-2)"></path>
                    <path d="M92.9492746,95.1444841 C91.2551581,95.171228 89.7693106,94.1725082 89.1077746,92.7024261 L92.6992682,90.7860541 C92.932997,92.2256314 93.0189758,93.6861024 92.9492746,95.1444841" id="Fill-81" fill="#003794" mask="url(#mask-2)"></path>
                    <path d="M85.4492091,109.459524 C85.5589782,109.415647 85.6779294,109.497132 85.6746592,109.615809 C85.6512176,110.370072 85.5548044,112.314024 85.1708214,112.286862 C84.6941816,112.252596 84.2517663,111.843497 84.1837345,112.013572 C84.1157028,112.184483 84.0814782,112.763657 83.6732875,112.763657 C83.2646794,112.763657 82.4478807,112.593164 82.4478807,112.593164 C82.4478807,112.593164 81.8013701,112.695543 81.7671456,112.83177 C81.732921,112.967997 81.3305735,113.502876 81.0046053,113.405929 C80.6778023,113.308983 80.7800587,112.797504 80.5417388,112.729391 C80.3034189,112.661277 80.0993235,112.661277 79.8610036,112.797504 C79.6231011,112.933731 78.8401095,112.763657 78.704046,112.456937 C78.567565,112.150217 78.5337578,111.877763 78.2954379,111.673004 C78.057118,111.468664 77.6831519,111.40055 77.6147028,110.991869 C77.546671,110.58277 77.7169591,110.344164 77.7169591,110.037444 C77.7169591,109.730724 77.3425756,109.526384 77.8187981,109.424004 C78.2954379,109.322043 79.8359612,109.530144 81.8831752,109.662611 C84.142832,109.808449 85.0769125,109.609123 85.4492091,109.459524" id="Fill-82" fill="#002784" mask="url(#mask-2)"></path>
                    <path d="M104.849285,188.778937 C103.61887,190.32758 103.074198,196.108036 102.964846,199.876428 C102.89598,202.350244 104.676493,205.675688 109.316427,206.198867 C113.784821,206.709092 113.15751,199.768616 112.756832,196.290647 C112.430446,193.42194 110.803526,188.4087 110.803526,188.4087" id="Fill-83" fill="#8C6239" mask="url(#mask-2)"></path>
                    <path d="M113.583772,137.409763 C113.583772,137.409763 114.522444,153.809662 114.262838,159.80407 C113.867586,168.941311 110.799478,190.294693 110.799478,190.294693 C110.799478,190.294693 103.932859,188.746886 103.975014,187.774493 C104.017169,186.802517 101.398571,160.433807 101.398571,160.433807 L98.803764,139.891519" id="Fill-84" fill="#8C6239" mask="url(#mask-2)"></path>
                    <polygon id="Fill-85" fill="#8C6239" mask="url(#mask-2)" points="98.6484178 290.994149 98.3086763 304.173489 90.7421233 304.885129 88.4670237 290.552873"></polygon>
                    <path d="M98.3812157,301.332027 C98.3812157,301.332027 90.5195801,301.307372 89.8951903,301.189532 C89.2712178,301.071691 85.2072581,308.512363 87.6793576,310.182189 C89.2607835,311.251111 113.982614,311.466735 113.427925,308.973696 C111.749252,301.543889 98.3812157,301.332027 98.3812157,301.332027" id="Fill-86" fill="#CCCCCC" mask="url(#mask-2)"></path>
                    <polygon id="Fill-87" fill="#8C6239" mask="url(#mask-2)" points="76.0275172 290.512172 75.6877756 303.691513 68.1212227 304.403153 65.8461231 290.070897"></polygon>
                    <path d="M68.7361381,300.850092 C68.7361381,300.850092 76.5973564,300.825856 77.2217462,300.707597 C77.846136,300.589757 81.9100958,308.030428 79.4375788,309.700254 C77.8565703,310.769595 53.1347398,310.9848 53.6894284,308.491761 C55.3676847,301.061955 68.7361381,300.850092 68.7361381,300.850092" id="Fill-88" fill="#CCCCCC" mask="url(#mask-2)"></path>
                    <polygon id="Fill-89" fill="#CCCCCC" mask="url(#mask-2)" points="54.7241792 181.113951 64.4890352 292.98603 78.3128424 293.718564 81.3208487 178.238975"></polygon>
                    <polygon id="Fill-90" fill="#CCCCCC" mask="url(#mask-2)" points="105.769217 180.279832 100.362568 292.447766 86.5775767 293.718522 79.0811424 178.443692"></polygon>
                    <path d="M68.0685085,182.632047 L72.2873136,282.870085" id="Stroke-91" stroke="#F2F2F2" mask="url(#mask-2)"></path>
                    <path d="M96.4889722,183.086234 L93.9212943,283.37985" id="Stroke-92" stroke="#F2F2F2" mask="url(#mask-2)"></path>
                    <path d="M59.0061328,146.414079 C58.1538574,160.187219 55.014796,178.238975 54.241404,186.149337 C77.2181985,195.010782 106.986485,187.20447 106.986485,187.20447 L105.243953,145.705782 C109.426446,143.238233 114.4128,140.356989 115.678692,138.23168 C110.889756,129.9001 106.832474,122.060359 101.798122,119.06796 C97.5484316,116.537731 93.2503256,116.243965 90.1651053,116.523523 C90.1459061,117.082639 89.9150989,117.6171 89.5056561,118.09891 C88.9184125,118.807625 87.9609591,119.404767 86.7672727,119.838521 C85.539779,120.277289 84.062279,120.53261 82.4691667,120.53261 C81.0830714,120.53261 79.7837896,120.33997 78.6623087,119.997731 C77.3434104,119.597825 76.2703447,119.000265 75.5916964,118.277342 C75.0620502,117.723241 74.7686371,117.096847 74.7686371,116.436605 C74.7686371,116.243965 74.7924273,116.05634 74.8408426,115.867878 C70.8941646,115.920948 65.7538002,116.576593 61.576315,119.06796 C56.5465544,122.060359 52.4892727,129.9001 47.6957451,138.23168 C49.0050439,140.424267 54.7468426,143.961156 59.0061328,146.414079" id="Fill-93" fill="#FBD689" mask="url(#mask-2)"></path>
                    <path d="M105.179427,145.154731 C105.179427,145.154731 104.514135,135.976955 104.514135,129.66538" id="Stroke-94" stroke="#152377" stroke-width="0.75" mask="url(#mask-2)"></path>
                    <path d="M60.0279451,146.695643 L66.9162672,131.817643" id="Stroke-95" stroke="#152377" stroke-width="0.75" mask="url(#mask-2)"></path>
                    <polygon id="Fill-96" fill="#D4EBE3" mask="url(#mask-2)" points="82.469125 150.365415 83.7717458 150.365415 83.7717458 120.532109 82.469125 120.532109"></polygon>
                    <path d="M27.8686551,134.222259 C27.6445258,132.25616 23.9474369,127.782814 21.3634814,125.040723 C19.6647737,123.243027 16.0574199,122.151957 12.4066593,125.067049 C8.88653644,127.869732 14.2322483,132.333049 16.9718839,134.508921 C19.2286191,136.305781 24.3372631,138.698947 24.3372631,138.698947" id="Fill-97" fill="#8C6239" mask="url(#mask-2)"></path>
                    <path d="M10.5645841,122.946587 L20.3202578,132.913727 L21.5944972,134.277251 L21.8219655,134.512514 L21.9359083,134.629519 C22.3282388,135.030679 23.0031307,134.975937 23.4230078,134.564749 L23.5432112,134.447744 L23.7677578,134.229196 L28.3563553,129.830232 L28.4339867,129.754597 C28.44776,129.741643 28.4598638,129.731196 28.4728023,129.716988 C29.0930184,129.066775 28.8309083,128.532732 28.3100269,128.080592 L28.2490905,128.017911 L24.5378108,124.222357 L17.0568193,116.578599 C16.6644888,116.177857 16.0062917,116.187051 15.5859972,116.599075 L14.7408172,117.42772 L14.4010756,117.761184 C14.27169,117.886964 14.2691858,118.094647 14.3956498,118.225024 L14.5584252,118.393428 C14.6853066,118.523804 14.6828023,118.731488 14.5534167,118.857686 L12.6706477,120.704273 C12.5429316,120.831307 12.3354972,120.829635 12.2077811,120.700512 C12.2077811,120.700512 12.2073638,120.700094 12.2073638,120.700094 L12.044171,120.532109 C11.9164549,120.402986 11.7090206,120.400896 11.5808871,120.52793 L10.6150862,121.475251 C10.1947917,121.887693 10.172671,122.545845 10.5645841,122.946587" id="Fill-98" fill="#FFFFFF" mask="url(#mask-2)"></path>
                    <path d="M10.6188008,123.001287 C10.2298093,122.60347 10.2544343,121.947825 10.6738941,121.536219 L11.6401123,120.589316 C11.7682458,120.462282 11.9748453,120.463118 12.1017267,120.590987 L12.26325,120.757719 C12.26325,120.758137 12.2636674,120.758137 12.2636674,120.758555 C12.3905487,120.886424 12.5971483,120.88726 12.7252818,120.760644 L14.6080508,118.913639 C14.7374364,118.787859 14.7403581,118.581011 14.6147288,118.451052 L14.4532055,118.284321 C14.3275763,118.154362 14.3309153,117.947514 14.4603008,117.821734 L14.8000424,117.489106 L15.6452225,116.659625 C16.0655169,116.248019 16.7212097,116.236318 17.1106186,116.634135 L24.5356822,124.219391 L24.5523771,124.203093 L28.2490487,128.013272 C28.2599004,128.024555 28.2703347,128.03542 28.2811864,128.046284 L28.4147458,128.184183 C28.7920508,128.568209 28.7807818,129.195021 28.3997203,129.608299 C28.3801038,129.638386 28.3596525,129.667637 28.3371144,129.696052 C28.2999682,129.744108 28.2594831,129.789238 28.2160763,129.831444 L23.5389958,134.379589 L23.5081102,134.410093 L23.3879068,134.52668 C22.9680297,134.937869 22.3123369,134.949987 21.922928,134.552171 L21.8402881,134.466507 C21.7993856,134.433494 21.7601525,134.397557 21.7230064,134.359949 L20.3010169,132.894045 L10.6188008,123.001287 Z M10.1897415,123.225267 L21.771839,135.058217 C22.3286144,135.626944 23.2647818,135.610229 23.8641292,135.021862 L28.8450572,130.135238 C29.4444047,129.547707 29.479464,128.61125 28.9235233,128.043359 L17.3418432,116.210828 C16.7850678,115.642519 15.8489004,115.659234 15.249553,116.247183 L10.2682076,121.133806 C9.66927754,121.721337 9.63421822,122.658212 10.1897415,123.225267 L10.1897415,123.225267 Z" id="Fill-99" fill="#3E5FAA" mask="url(#mask-2)"></path>
                    <polygon id="Fill-100" fill="#FCCBA0" mask="url(#mask-2)" points="334.002481 196.129682 330.335026 208.840586 341.33781 194.434784"></polygon>
                    <polygon id="Fill-101" fill="#FCCBA0" mask="url(#mask-2)" points="314.818104 200.137599 346.133591 200.137599 346.133591 168.784483 314.818104 168.784483"></polygon>
                    <path d="M331.263681,179.249855 C330.315827,179.135775 329.480246,179.320058 328.768625,179.943944 C327.99732,180.620901 327.569513,181.495512 327.337871,182.477517 C327.069083,183.618732 327.046545,184.775826 327.155062,185.936681 C327.241875,186.863944 327.451397,187.759867 327.959757,188.5555 C328.132132,188.823775 328.361269,189.055695 328.56453,189.304331 C328.585399,189.293884 328.60585,189.283437 328.626301,189.27299 C329.503202,185.939606 330.380519,182.606222 331.263681,179.249855 L331.263681,179.249855 Z M333.141858,174.465611 C333.591786,174.717171 333.665661,174.894768 333.532102,175.405828 C333.37517,176.005896 333.218238,176.605964 333.065897,177.186809 C333.440697,177.41079 333.811742,177.610534 334.160248,177.845379 C335.163195,178.521082 335.848104,179.440406 336.187846,180.604186 C336.324327,181.072205 336.367733,181.549 336.140265,182.011169 C335.86313,182.575717 335.325553,182.81098 334.731632,182.627116 C334.388969,182.520976 334.217011,182.242671 334.053401,181.957263 C333.7867,181.490497 333.548797,181.004509 333.248706,180.561145 C333.030003,180.237292 332.730746,179.969017 332.467384,179.676087 C332.445681,179.686534 332.42356,179.697398 332.401856,179.708681 C331.512852,183.085524 330.623431,186.461949 329.726496,189.868879 C329.897619,189.901891 330.056221,189.942425 330.217744,189.961229 C331.794579,190.148437 333.104712,189.361997 333.689034,187.880633 C333.841375,187.494099 333.9741,187.098372 334.14731,186.721449 C334.380204,186.216239 334.726623,186.014823 335.204515,186.059118 C335.701606,186.104249 336.124405,186.451084 336.260051,186.934147 C336.421575,187.510396 336.299284,188.071183 336.121901,188.61442 C335.639,190.089935 334.715772,191.201898 333.313816,191.888884 C332.680661,192.199364 332.002848,192.352307 331.299157,192.399526 C330.567503,192.448418 329.842526,192.40078 329.101272,192.253688 C328.999433,192.637715 328.900933,193.012966 328.799511,193.387381 C328.7632,193.523191 328.731897,193.661925 328.678056,193.791048 C328.558687,194.076456 328.257761,194.221041 327.971026,194.142898 C327.675943,194.062666 327.487708,193.801495 327.532784,193.487253 C327.566174,193.254497 327.638797,193.026756 327.697647,192.797343 C327.764844,192.537007 327.83371,192.277089 327.90675,192.018425 C327.934714,191.918135 327.920524,191.858797 327.815346,191.806563 C326.582844,191.196048 325.770636,190.187299 325.184227,188.976717 C324.442973,187.446879 324.213418,185.818005 324.277693,184.134807 C324.321935,182.98022 324.5085,181.854048 324.955924,180.782618 C325.696344,179.008741 326.919246,177.722106 328.760695,177.092369 C329.669733,176.781889 330.611744,176.706671 331.566276,176.83663 C331.66728,176.850002 331.768284,176.858778 331.887236,176.87215 C331.997839,176.458036 332.106774,176.05228 332.214456,175.645688 C332.260367,175.47227 332.314208,175.300524 332.346763,175.124599 C332.403108,174.822476 332.544598,174.590973 332.834672,174.465611 L333.141858,174.465611 Z" id="Fill-102" fill="#F79745" mask="url(#mask-2)"></path>
                </g>
            </g>
        </g>
    </g>
</svg>