<svg xmlns="http://www.w3.org/2000/svg" width="933" height="941" viewBox="0 0 933 941">
    <g fill="none" fill-rule="evenodd" stroke-width="1.5" opacity=".448">
        <path stroke="#F49746" d="M441.225 66.127L264.768 510.558c-11.035 27.799-9.647 58.983 3.814 85.691l143.816 285.347c26.039 51.664 89.083 72.465 140.815 46.459l319.5-160.615c51.729-26.004 72.556-88.967 46.517-140.633L632.37 57.645c-40.688-80.729-157.788-75.535-191.145 8.482z" transform="translate(1 1)"/>
        <path stroke="#EF7D22" d="M585.471 347.336L299.65 204.259c-17.878-8.947-38.725-9.822-57.286-2.403l-198.307 79.27C8.15 295.48-9.33 336.242 5.013 372.174l88.579 221.92c14.34 35.93 55.073 53.424 90.979 39.072L580.12 475.05c56.103-22.427 59.383-100.667 5.35-127.714z" transform="translate(1 1)"/>
    </g>
</svg>
