<svg xmlns="http://www.w3.org/2000/svg" width="199" height="161" viewBox="0 0 199 161">
    <g fill="none">
        <path fill="#FF9941" d="M211.273 54.105v-.849c0-1.3-.056-2.589-.143-3.871C206.132 20.069 180.098-1.03 150.25.049c-28.827 1.022-51.924 22.99-56.529 50.575-.087 1.338-.15 2.682-.15 4.039v109.22c.004.49.04.978.107 1.463v5.513c0 6.158 5.014 11.15 11.2 11.15h95.494c6.185 0 11.2-4.992 11.2-11.15V60.034c0-1.98-.099-3.959-.299-5.929zM36.644 167.983l15.047 10.426c9.658 6.69 24.929 1.35 24.929-8.722V131.03c0-5.371-4.642-9.934-10.996-11.26-14.362-2.991-20.448-1.375-45.713-22.322-1.867-1.534-10.542-3.541-14.699-.436C2.387 99.14.62 102.131.62 105.438c0 23.9 13.111 46.659 36.024 62.545z" transform="rotate(-19 142.524 128.915)"/>
        <path fill="#FF9941" d="M36.644 167.983l15.047 10.426c9.658 6.69 24.929 1.35 24.929-8.722V131.03c0-5.371-4.642-9.934-10.996-11.26-14.362-2.991-20.448-1.375-45.713-22.322-1.867-1.534-10.542-3.541-14.699-.436C2.387 99.14.62 102.131.62 105.438c0 23.9 13.111 46.659 36.024 62.545z" transform="rotate(-19 142.524 128.915)"/>
        <path fill="#FFF" stroke="#BF7331" stroke-linecap="round" stroke-linejoin="round" stroke-width="1.72" d="M151.778 102.385c14.91 0 26.998-12.534 27-27.998 0-15.463-12.086-28-26.996-28.002-14.911-.002-27.001 12.53-27.004 27.994.013 15.46 12.092 27.99 27 28.006h0z" transform="rotate(-19 142.524 128.915)"/>
        <path fill="#484848" d="M153.706 98.046c6.075 0 11-4.925 11-11 0-6.076-4.925-11-11-11s-11 4.924-11 11c0 2.917 1.159 5.715 3.222 7.778 2.062 2.063 4.86 3.222 7.778 3.222z" transform="rotate(-19 142.524 128.915)"/>
        <path fill="#FFF" d="M157.023 82.8c1.38 0 2.5-1.119 2.5-2.5 0-1.38-1.12-2.5-2.5-2.5-1.381 0-2.5 1.12-2.5 2.5.004 1.38 1.12 2.496 2.5 2.5z" transform="rotate(-19 142.524 128.915)"/>
        <path fill="#C1272D" d="M178.824 125.308c.53-.953.483-2.148-.119-3.05-.602-.904-1.648-1.348-2.671-1.135l-45.7 9.513c-1.023.21-1.835 1.04-2.073 2.117s.142 2.202.97 2.874c2.91 2.386 6.72 5.19 9.679 6.22 1.501.521 3.035.93 4.59 1.224 1.01-6.358 5.502-11.46 11.409-12.96 5.907-1.501 12.087.889 15.7 6.071.505-.403.997-.813 1.47-1.243 2.367-2.148 4.902-6.286 6.745-9.631z" transform="rotate(-19 142.524 128.915)"/>
        <path fill="#D77579" d="M158.042 128.937c-7.362.006-13.648 4.865-14.887 11.507 9.508 1.55 19.29-.594 27-5.915-2.84-3.518-7.335-5.593-12.113-5.592z" transform="rotate(-19 142.524 128.915)"/>
    </g>
</svg>
