<svg xmlns="http://www.w3.org/2000/svg" xmlns:xlink="http://www.w3.org/1999/xlink" width="396" height="347" viewBox="0 0 396 347">
    <defs>
        <path id="prefix__a" d="M0 0.407L395.321 0.407 395.321 326.845 0 326.845z"/>
        <path id="prefix__c" d="M0 345.593L395.321 345.593 395.321 0.417 0 0.417z"/>
    </defs>
    <g fill="none" fill-rule="evenodd">
        <g transform="translate(0 .01)">
            <mask id="prefix__b" fill="#fff">
                <use xlink:href="#prefix__a"/>
            </mask>
            <path fill="#F9F9F9" d="M148.635 42.56c18.296-12.697 29.396-36.813 51.213-41.407 18.036-3.797 35.343 7.625 50.643 17.867 15.302 10.241 34.142 20.215 51.306 13.516 7.765-3.03 14.005-9.177 21.803-12.12 15.556-5.872 34.263 3.474 41.58 18.355s4.508 33.337-4.231 47.436c-6.21 10.02-15.649 20.228-13.078 31.722 2.908 13 18.646 17.552 29.47 25.371 10.798 7.802 17.642 20.775 17.968 34.058.326 13.284-5.874 26.574-16.276 34.892-6.523 5.215-14.431 8.47-21.052 13.561-6.62 5.091-12.106 13.078-10.59 21.271.8 4.334 3.435 8.077 6.003 11.666l13.217 18.473c4.634 6.477 9.482 13.653 8.986 21.592-.717 11.484-12.272 19.275-23.385 22.416-20.92 5.911-44.533 1.428-61.804-11.734-9.443-7.196-18.208-17.28-30.085-17.818-13.575-.614-23.763 11.372-34.418 19.773-28.751 22.668-74.48 19.975-100.35-5.91-12.985-12.992-21.972-31.253-39.07-38.04-19.1-7.583-41.78 2.069-60.94-5.363-14.465-5.611-24.06-20.635-25.37-36.043-1.308-15.407 4.814-30.83 14.49-42.923 6.03-7.536 13.393-13.952 19.239-21.631 5.847-7.68 10.201-17.21 8.808-26.748-2.261-15.474-17.988-24.884-26.378-38.1-13.262-20.896-4.45-52.007 17.29-63.932 20.559-11.277 43.043-3.78 59.973 9.922 16.116 13.044 37.886 11.782 55.038-.121" mask="url(#prefix__b)"/>
        </g>
        <path stroke="#B3B3B3" stroke-width="2" d="M99.69 299.88c3.95 0 7.15 3.188 7.15 7.121 0 3.934-3.2 7.123-7.15 7.123-3.948 0-7.149-3.19-7.149-7.123 0-3.933 3.201-7.122 7.15-7.122zM344.71 338.053c1.974 0 3.575 1.595 3.575 3.561 0 1.967-1.6 3.561-3.575 3.561s-3.575-1.594-3.575-3.56c0-1.967 1.6-3.562 3.575-3.562z"/>
        <path fill="#CCC" d="M254.45 34.084c-3.854.903-4.59 1.636-5.496 5.475-.907-3.84-1.642-4.572-5.497-5.475 3.855-.903 4.59-1.636 5.497-5.476.907 3.84 1.642 4.573 5.497 5.476M196.632 294.473c-3.855.903-4.59 1.635-5.497 5.475-.907-3.84-1.642-4.572-5.497-5.475 3.855-.903 4.59-1.636 5.497-5.476.906 3.84 1.642 4.573 5.497 5.476M48.826 56.797c-3.854.903-4.59 1.635-5.497 5.475-.906-3.84-1.642-4.572-5.496-5.475 3.854-.904 4.59-1.636 5.496-5.475.907 3.84 1.643 4.571 5.497 5.475M384.747 275.816c-3.854.903-4.59 1.635-5.496 5.475-.907-3.84-1.643-4.572-5.497-5.475 3.854-.904 4.59-1.636 5.497-5.476.906 3.84 1.642 4.572 5.496 5.476"/>
        <path fill="#E6E6E6" d="M336.518 35.333c-6.806-.634-12.838 4.346-13.476 11.124-.637 6.78 4.363 12.788 11.168 13.423 6.805.635 12.837-4.345 13.475-11.124l.004-.04c.613-6.765-4.382-12.749-11.171-13.383zm8.15-14.373c2.365.865 4.602 2.042 6.653 3.498l6.215-3.141 7.364 8.847-4.249 5.507c1.058 2.274 1.806 4.68 2.224 7.152l6.603 2.156-1.07 11.445-6.891.897c-.86 2.351-2.032 4.579-3.483 6.622l3.154 6.196-8.906 7.326-5.524-4.233c-2.285 1.054-4.701 1.797-7.185 2.21l-2.165 6.602-11.484-1.065-.906-6.885c-2.363-.865-4.599-2.042-6.648-3.5l-6.22 3.143-7.36-8.832 4.255-5.507c-1.057-2.277-1.805-4.684-2.224-7.157l-6.628-2.152 1.07-11.444 6.911-.897c.872-2.355 2.053-4.583 3.513-6.627l-3.16-6.196 8.878-7.336 5.528 4.233c2.286-1.053 4.702-1.799 7.185-2.216l2.165-6.577 11.485 1.065.9 6.866zM154.447 194.462c-6.805-.634-12.838 4.346-13.475 11.124-.638 6.779 4.362 12.788 11.167 13.423 6.805.635 12.838-4.346 13.475-11.124l.004-.04c.614-6.765-4.382-12.75-11.17-13.383zm8.15-14.374c2.365.866 4.602 2.042 6.653 3.5l6.216-3.143 7.364 8.847-4.25 5.507c1.058 2.275 1.806 4.68 2.225 7.152l6.603 2.156-1.07 11.446-6.891.897c-.862 2.351-2.033 4.578-3.484 6.622l3.155 6.195-8.907 7.326-5.523-4.233c-2.285 1.054-4.702 1.798-7.186 2.21l-2.165 6.603-11.484-1.066-.905-6.884c-2.363-.866-4.599-2.043-6.648-3.5l-6.22 3.143-7.36-8.832 4.255-5.508c-1.058-2.276-1.806-4.683-2.225-7.157l-6.628-2.15 1.07-11.446 6.912-.897c.87-2.354 2.052-4.583 3.513-6.627l-3.16-6.195 8.877-7.336 5.529 4.232c2.285-1.053 4.702-1.798 7.185-2.215l2.165-6.577 11.484 1.065.9 6.865z"/>
        <path fill="#754C24" d="M63.464 108.53s21.785 10.857 27.724 9.528c6.354-1.402 25.116-11.191 25.116-13.822 0-2.63 2.95-8.497 5.954-12.507 1.983-2.635 6.607-4.61 11.893-1.32 5.098 3.172-1.32 9.876-4.6 13.167-2.724 2.713-8.59 6.586-8.59 6.586S102.45 133.2 89.896 134.52c-9.202.967-32.712-14.156-32.712-14.156l6.28-11.834z"/>
        <path fill="#CCC" d="M158.97 37.166H328.63c3.427 0 6.205 2.768 6.205 6.18v247.907c0 3.413-2.778 6.18-6.205 6.18H158.97c-3.427 0-6.205-2.767-6.205-6.18V43.347c0-3.413 2.778-6.18 6.205-6.18"/>
        <mask id="prefix__d" fill="#fff">
            <use xlink:href="#prefix__c"/>
        </mask>
        <path fill="#FAFAFA" d="M158.502 272.327L329.088 272.327 329.088 54.974 158.502 54.974z" mask="url(#prefix__d)"/>
        <path fill="#B3B3B3" d="M217.035 44.663h53.526c.362 0 .655.292.655.653v1.568c0 .36-.293.653-.655.653h-53.526c-.362 0-.656-.292-.656-.653v-1.568c0-.36.294-.653.656-.653" mask="url(#prefix__d)"/>
        <path fill="#E0E0E0" d="M95.554 152.32L176.548 152.32 176.548 70.93 95.554 70.93z" mask="url(#prefix__d)"/>
        <path stroke="#FAFAFA" stroke-linecap="round" stroke-linejoin="round" stroke-width="4" d="M96.056 149.551L135.931 111.064 95.553 71.524M176.039 72.315L136.164 110.808 176.548 150.348" mask="url(#prefix__d)"/>
        <path fill="#002784" d="M74.775 80.403s.798 1.603 1.81 2.197c.82.525 1.144 1.561.766 2.457-.404 1.034-2.424 1.333-2.96.796" mask="url(#prefix__d)"/>
        <path fill="#8C6239" d="M43.607 109.017c6.401-.448 12.835-.415 19.23.101-1.27-2.9-2.557-5.89-3.252-8.958-.314-1.39-.51-2.796-.524-4.218-2.857-1.7-5.475-4.806-7.834-9.184-.68-.275-1.112-2.707-1.828-2.885-.407-.101-.557-.709-.98-.654-.176 1.267-.95 5.286-1.138 6.55-.507 3.457-1.051 6.907-1.626 10.351-.504 3.004-1.034 6.022-2.048 8.897" mask="url(#prefix__d)"/>
        <path fill="#754C24" d="M49.112 87.408c.421.838.324 3.226.817 4.024 1.909 3.097 3.28 5.088 5.897 6.716 1.139.707 2.453 1.562 3.76 2.013-.315-1.39-.51-2.797-.525-4.219-2.857-1.7-5.475-4.805-7.834-9.184-.68-.276-1.243-1.67-1.958-1.847-.408-.101-.392-2.26-.814-2.206-.177 1.267.844 3.439.657 4.703" mask="url(#prefix__d)"/>
        <path fill="#8C6239" d="M48.44 90.057c8.243 8.074 17.97 9.684 22.146 6.341 1.852-1.48 3.139-3.43 3.914-5.745.172-.507.316-1.03.44-1.572 1.066-4.742.288-10.739-1.967-17.23-3.415-9.824-17.025-10.506-23.387-5.393-6.36 5.115-8.59 16.31-1.147 23.599" mask="url(#prefix__d)"/>
        <path fill="#002784" d="M69.106 76.338c.04 0 .082-.007.122-.025 1.412-.593 2.962-.805 4.482-.61.174.019.33-.1.352-.271.022-.172-.1-.329-.272-.35-1.631-.208-3.293.018-4.807.655-.16.068-.235.25-.167.41.05.12.167.191.29.191M69.594 87.408c-.03 1.504.93 2.909 2.444 3.385.844.264 1.712.192 2.462-.14.172-.507.316-1.03.44-1.572l-5.346-1.673zM72.267 77.1c-.522 0-.945.422-.945.941 0 .52.423.941.945.941.521 0 .944-.421.944-.94 0-.52-.423-.941-.944-.941" mask="url(#prefix__d)"/>
        <path fill="#002784" d="M30.21 62.41c-2.979-5.407-.993-12.196 4.435-15.162 4.799-2.623 10.798-1.41 14.19 2.868 5.433-2.079 11.528.623 13.615 6.034.839 2.176.927 4.568.25 6.799h.106c.396 0 .793.042 1.178.136.823.201 1.41.383 2.493.9.191.091.39.171.572.276 3.12 1.809 4.291 4.077 5.53 6.595-1.205.878-4.247.7-5.839.7-.714 0-1.293-.063-1.877-.155.297 1.195.265 1.601.265 2.891 0 8.46-5.586 13.735-13.888 15.48-2.086.439-3.524 1.958-4.235 1.858.111-4.627-3.913-5.697-4.088-11.836-5.808 2.13-12.248-.835-14.385-6.62-1.346-3.644-.695-7.722 1.72-10.77l-.042.006z" mask="url(#prefix__d)"/>
        <path fill="#8C6239" d="M62.048 79.127c-1.36 0-2.463 1.099-2.463 2.454 0 1.355 1.103 2.453 2.463 2.453s2.463-1.098 2.463-2.453c0-1.355-1.102-2.454-2.463-2.454" mask="url(#prefix__d)"/>
        <path fill="#FCD78A" d="M62.048 83.578c-1.36 0-2.463 1.099-2.463 2.454 0 1.355 1.103 2.454 2.463 2.454s2.463-1.099 2.463-2.454c0-1.355-1.102-2.454-2.463-2.454" mask="url(#prefix__d)"/>
        <path fill="#8C6239" d="M47.747 324.674L49.215 338.276 57.142 338.382 58.297 323.359zM85.622 320.517L87.089 334.119 95.017 334.225 96.172 319.202z" mask="url(#prefix__d)"/>
        <path fill="#B3B3B3" d="M56.425 332.392s-8.2-.14-8.848-.27c-.649-.13-4.997 7.533-2.44 9.303 1.635 1.135 27.424 1.705 26.89-.891-1.641-7.751-15.602-8.142-15.602-8.142M94.663 332.341s-8.203-.027-8.857-.151c-.653-.124-4.89 7.603-2.3 9.335 1.66 1.11 27.425 1.334 26.85-1.242-1.725-7.74-15.693-7.942-15.693-7.942" mask="url(#prefix__d)"/>
        <path fill="#FF9941" d="M74.391 201.339L60.372 326.714 45.318 326.714 36.333 192.956z" mask="url(#prefix__d)"/>
        <path stroke="#F2F2F2" stroke-width="2" d="M53.939 183.346L51.907 315.76" mask="url(#prefix__d)"/>
        <path fill="#8C6239" d="M76.36 120.56s16.14 13.346 22.084 12.03c6.354-1.406 24.168-8.551 24.168-11.186 0-2.636 2.931-8.497 5.95-12.507 1.982-2.635 6.61-4.61 11.897-1.316 5.093 3.172-1.32 9.872-4.629 13.167-2.723 2.713-8.59 6.582-8.59 6.582s-18.504 23.042-31.064 24.357c-9.225.967-30.416-17.126-30.416-17.126l10.6-14z" mask="url(#prefix__d)"/>
        <path fill="#FFB270" d="M70.158 174.208s34.833 44.17 35.886 61.008c1.707 18.45-8.34 91.528-8.34 91.528H83.21s-.795-75.213-4.6-86.717c-2.333-7.052-28.866-17.685-37.267-29.041-6.736-9.111-5.346-20.82-4.486-26.467l5.341-19.917h14.944l13.016 9.606z" mask="url(#prefix__d)"/>
        <path stroke="#F2F2F2" stroke-width="2" d="M90.498 315.765s1.84-65.994 0-79.285c-1.38-7.79-15.01-23.844-23.924-30.705-20.244-15.582-15.643-34.372-15.643-34.372" mask="url(#prefix__d)"/>
        <path fill="#E6E6E6" d="M45.212 103.475l14.81 3.172c2.96.358 5.687 1.783 7.666 4.005l16.728 12.401c1.215.917 1.454 2.642.533 3.853-.093.122-.195.236-.307.34l-12.85 11.861-1.008 35.903-31.056.202s-5.06-37.989-5.12-47.273c-.051-11.526 10.604-24.464 10.604-24.464" mask="url(#prefix__d)"/>
        <path fill="#ECECEC" d="M232.734 86.062L313.789 86.062 313.789 82.792 232.734 82.792zM232.734 99.514L313.789 99.514 313.789 96.245 232.734 96.245zM232.734 112.966L313.789 112.966 313.789 109.697 232.734 109.697zM232.734 126.418L313.789 126.418 313.789 123.149 232.734 123.149zM232.734 139.87L273.261 139.87 273.261 136.601 232.734 136.601z" mask="url(#prefix__d)"/>
        <path fill="#F5F5F5" d="M176.548 220.819L311.743 220.819 311.743 158.035 176.548 158.035z" mask="url(#prefix__d)"/>
        <path fill="#3E5FAA" d="M259.155 186.772c0 7.256-5.905 13.138-13.189 13.138s-13.189-5.882-13.189-13.138 5.905-13.138 13.19-13.138c7.283 0 13.188 5.882 13.188 13.138" mask="url(#prefix__d)"/>
        <path fill="#F5F5F5" d="M250.399 186.772L246.954 188.753 243.51 190.733 243.51 186.772 243.51 182.81 246.954 184.791z" mask="url(#prefix__d)"/>
        <path fill="#3E5FAA" d="M176.548 220.819L311.743 220.819 311.743 209.54 176.548 209.54z" mask="url(#prefix__d)"/>
        <path fill="#F5F5F5" d="M206.924 215.179L205.526 215.983 204.128 216.787 204.128 215.179 204.128 213.571 205.526 214.375zM214.957 215.434L286.451 215.434 286.451 214.923 214.957 214.923z" mask="url(#prefix__d)"/>
        <path fill="#F5F5F5" d="M216.404 215.179c0 .586-.477 1.062-1.065 1.062-.589 0-1.066-.476-1.066-1.062 0-.586.477-1.061 1.066-1.061.588 0 1.065.475 1.065 1.06" mask="url(#prefix__d)"/>
        <path fill="#ECECEC" d="M206.427 238.492L287.482 238.492 287.482 235.223 206.427 235.223zM206.427 251.945L287.482 251.945 287.482 248.676 206.427 248.676z" mask="url(#prefix__d)"/>
    </g>
</svg>
