<svg id="Layer_1" data-name="Layer 1" xmlns="http://www.w3.org/2000/svg" viewBox="0 0 110.42 89"><defs><style>.cls-1{fill:#f29247;}.cls-2{fill:#fff;}.cls-3{fill:#1a1a1a;}.cls-4{fill:#bc282d;}.cls-5{fill:#d27479;}</style></defs><title>QODI - Regular State</title><path class="cls-1" d="M79.2,22.15V21.8c0-.54,0-1.06-.06-1.59A24.26,24.26,0,0,0,54.33,0c-11.75.41-21.17,9.4-23,20.7q-.06.83-.06,1.65V67.08a3.86,3.86,0,0,0,0,.6v2.26a4.57,4.57,0,0,0,4.57,4.57H74.75a4.57,4.57,0,0,0,4.58-4.57V24.57A24,24,0,0,0,79.2,22.15Z"/><path class="cls-1" d="M11.28,69.13,16,73.32a4.69,4.69,0,0,0,7.81-3.51V54.28a4.67,4.67,0,0,0-3.45-4.52c-4.49-1.21-6.4-.56-14.3-9-.58-.62-3.3-1.43-4.61-.18A4.7,4.7,0,0,0,0,44H0A33.65,33.65,0,0,0,11.28,69.13Z"/><path class="cls-1" d="M99.14,69.13l-4.71,4.19a4.69,4.69,0,0,1-7.81-3.51V54.28a4.67,4.67,0,0,1,3.45-4.52c4.49-1.21,9-1.39,14.31-9,.48-.69,3.3-1.43,4.6-.18A4.7,4.7,0,0,1,110.42,44h0A33.62,33.62,0,0,1,99.14,69.13Z"/><rect class="cls-1" x="30.94" y="81.86" width="18.04" height="7.14" rx="3.57"/><rect class="cls-1" x="61.42" y="81.86" width="18.04" height="7.14" rx="3.57"/><path class="cls-2" d="M55.14,42.31A11.38,11.38,0,1,0,43.76,30.93,11.4,11.4,0,0,0,55.14,42.31Z"/><path class="cls-3" d="M59.57,29.06a4.77,4.77,0,0,0-1.73-2.14,2.08,2.08,0,1,1-3.9-.69,4.06,4.06,0,0,0-.59.19,4.78,4.78,0,1,0,6.22,2.64Zm-4.65,5.85a.61.61,0,0,1-.79-.34.6.6,0,0,1,.33-.79.61.61,0,0,1,.79.34A.6.6,0,0,1,54.92,34.91Z"/><path class="cls-4" d="M65.2,53a1,1,0,0,0-.86-.45l-18.29.25a1,1,0,0,0-.91.57,1,1,0,0,0,.15,1.17,15.55,15.55,0,0,0,3.33,3,12.82,12.82,0,0,0,1.69.76,6,6,0,0,1,3.85-3.65h3.52a6,6,0,0,1,3.57,3c.22-.11.44-.22.65-.34a15.32,15.32,0,0,0,3.25-3A1,1,0,0,0,65.2,53Z"/><path class="cls-5" d="M57,54.43a6,6,0,0,0-6.67,3.82,13.71,13.71,0,0,0,10.94-.6A5.94,5.94,0,0,0,57,54.43Z"/></svg>