<svg xmlns="http://www.w3.org/2000/svg" width="2053" height="1698" viewBox="0 0 2053 1698">
    <g fill="none" fill-rule="evenodd" stroke-width="1.5" opacity=".229">
        <path stroke="#FDE4D0" d="M694.168 374.558l473.025 126.154c29.586 7.893 54.389 28.055 68.155 55.403l147.074 292.188c26.629 52.904 5.33 117.377-47.573 144.006l-326.74 164.466c-52.901 26.628-117.374 5.329-144.003-47.574l-293.36-582.81c-41.61-82.665 34-175.683 123.422-151.833z" transform="translate(1 1)"/>
        <path stroke="#EF7D22" d="M1932.98 230.79L1494.492 11.456c-27.427-13.717-59.41-15.059-87.885-3.684l-304.229 121.52c-55.084 22.004-81.901 84.493-59.898 139.575l135.891 340.206c22.001 55.08 84.491 81.898 139.574 59.894l606.827-242.39c86.07-34.38 91.102-154.323 8.208-195.786z" transform="translate(1 1)"/>
        <path stroke="#F49746" d="M281.998 357.123L11.77 1038.61c-16.899 42.626-14.774 90.444 5.84 131.398l220.242 437.549c39.877 79.22 136.424 111.117 215.647 71.24l489.29-246.286c79.217-39.875 111.112-136.422 71.235-215.645L574.72 344.116c-62.31-123.79-241.638-115.824-292.722 13.007z" transform="translate(1 1)"/>
        <path stroke="#F8B172" d="M1401.891 316.214l-233.869 589.793c-14.625 36.891-12.786 78.275 5.054 113.717l190.609 378.677c34.51 68.562 118.068 96.166 186.63 61.654l423.456-213.148c68.559-34.509 96.163-118.066 61.65-186.628l-380.194-755.32c-53.926-107.135-209.126-100.24-253.336 11.255z" transform="translate(1 1)"/>
        <path stroke="#FBCBA1" d="M963.698 716.332l-180.722 455.763c-11.302 28.507-9.88 60.486 3.905 87.875l147.293 292.622c26.67 52.982 91.237 74.312 144.22 47.643l327.223-164.71c52.98-26.667 74.31-91.235 47.642-144.216l-293.796-583.675c-41.67-82.787-161.6-77.461-195.765 8.698z" transform="translate(1 1)"/>
    </g>
</svg>
