<svg xmlns="http://www.w3.org/2000/svg" width="18" height="17.56" viewBox="0 0 18 17.56">
  <g id="github-logo" transform="translate(0 -5.365)">
    <path id="Path_1" data-name="Path 1" d="M16.793,9.847a8.961,8.961,0,0,0-3.275-3.275A8.8,8.8,0,0,0,9,5.365,8.8,8.8,0,0,0,4.482,6.572,8.96,8.96,0,0,0,1.207,9.847,8.8,8.8,0,0,0,0,14.365a8.746,8.746,0,0,0,1.717,5.291,8.814,8.814,0,0,0,4.435,3.252.525.525,0,0,0,.469-.082.458.458,0,0,0,.152-.351q0-.035-.006-.633T6.761,20.8l-.27.047a3.438,3.438,0,0,1-.65.041,4.955,4.955,0,0,1-.814-.082,1.82,1.82,0,0,1-.785-.351,1.487,1.487,0,0,1-.516-.721l-.117-.27a2.928,2.928,0,0,0-.369-.6,1.414,1.414,0,0,0-.51-.445l-.082-.059A.86.86,0,0,1,2.5,18.22a.643.643,0,0,1-.105-.164q-.035-.082.059-.135a.76.76,0,0,1,.34-.052l.234.035a1.711,1.711,0,0,1,.58.281,1.891,1.891,0,0,1,.568.609,2.066,2.066,0,0,0,.65.733,1.38,1.38,0,0,0,.767.252,3.332,3.332,0,0,0,.668-.058,2.331,2.331,0,0,0,.527-.176,1.9,1.9,0,0,1,.574-1.207,8.024,8.024,0,0,1-1.2-.211,4.783,4.783,0,0,1-1.1-.457,3.155,3.155,0,0,1-.943-.785,3.773,3.773,0,0,1-.615-1.23,5.851,5.851,0,0,1-.24-1.758,3.418,3.418,0,0,1,.926-2.414,3.15,3.15,0,0,1,.082-2.39,1.642,1.642,0,0,1,1.008.158,7.046,7.046,0,0,1,.979.451q.311.187.5.316a8.463,8.463,0,0,1,4.5,0l.445-.281a6.307,6.307,0,0,1,1.078-.516,1.536,1.536,0,0,1,.95-.129,3.12,3.12,0,0,1,.094,2.39,3.419,3.419,0,0,1,.926,2.414,5.917,5.917,0,0,1-.24,1.764,3.627,3.627,0,0,1-.621,1.23,3.276,3.276,0,0,1-.949.779,4.792,4.792,0,0,1-1.1.457,8.016,8.016,0,0,1-1.2.211A2.087,2.087,0,0,1,11.238,20v2.472a.467.467,0,0,0,.147.351.509.509,0,0,0,.463.082,8.813,8.813,0,0,0,4.436-3.252A8.748,8.748,0,0,0,18,14.364,8.811,8.811,0,0,0,16.793,9.847Z" fill="#b3b3b3"/>
  </g>
</svg>
